<svg width="68" height="77" viewBox="0 0 68 77" fill="none" xmlns="http://www.w3.org/2000/svg">
<path d="M33.9059 77L6.17896 69.3027L0 0H67.8948L61.7095 69.2921L33.9059 77Z" fill="#264DE4"/>
<path d="M56.4141 64.8799L61.6996 5.6665H33.9474V71.1083L56.4141 64.8799Z" fill="#2965F1"/>
<path d="M14.165 31.3698L14.9267 39.8695H33.9474V31.3698H14.165ZM12.6342 14.1663L13.4068 22.666H33.9474V14.1663H12.6342ZM33.9474 53.4444L33.9102 53.4543L24.4441 50.8983L23.8389 44.1195H15.3065L16.4972 57.4653L33.9083 62.2984L33.9474 62.2877V53.4444Z" fill="#EBEBEB"/>
<path d="M53.6755 31.3698L55.2098 14.1663H33.9181V22.666H45.8949L45.1215 31.3698H33.9181V39.8695H44.3846L43.3978 50.893L33.9179 53.4516V62.2944L51.3428 57.4653L51.4706 56.0292L53.4682 33.6522L53.6755 31.3698Z" fill="white"/>
</svg>
