<svg width="81" height="81" viewBox="0 0 81 81" fill="none" xmlns="http://www.w3.org/2000/svg">
<path d="M79.4728 36.8923L44.1053 1.52766C42.0704 -0.509222 38.7672 -0.509222 36.7296 1.52766L29.386 8.87234L38.7012 18.1879C40.8667 17.4567 43.3489 17.947 45.0743 19.6728C46.8087 21.4093 47.2954 23.9128 46.5459 26.0857L55.5241 35.0643C57.6962 34.3157 60.2023 34.7993 61.9367 36.5369C64.3616 38.9611 64.3616 42.8894 61.9367 45.3143C59.5115 47.7399 55.5835 47.7399 53.1569 45.3143C51.3336 43.4895 50.8826 40.8104 51.8061 38.5638L43.4329 30.1903L43.4322 52.2251C44.0234 52.5177 44.5813 52.9084 45.0739 53.3989C47.4981 55.8228 47.4981 59.7504 45.0739 62.1784C42.6491 64.6022 38.7192 64.6022 36.2969 62.1784C33.8724 59.7506 33.8724 55.823 36.2969 53.3989C36.8961 52.8007 37.5894 52.348 38.3292 52.0446V29.805C37.5891 29.5029 36.8966 29.0535 36.2965 28.4506C34.4601 26.6155 34.0178 23.92 34.9596 21.6648L25.7766 12.4801L1.52808 36.7289C-0.509361 38.7673 -0.509361 42.0706 1.52808 44.1077L36.8935 79.4723C38.9296 81.5092 42.2316 81.5092 44.2705 79.4723L79.4724 44.2748C81.5092 42.2369 81.5092 38.9326 79.4724 36.8952" fill="#F05133"/>
</svg>
