<svg width="48" height="48" viewBox="0 0 48 48" fill="none" xmlns="http://www.w3.org/2000/svg">
<path d="M3.27273 42.009H10.9091V23.4636L0 15.2817V38.7363C0 40.5445 1.46455 42.009 3.27273 42.009Z" fill="#4285F4"/>
<path d="M37.0909 42.009H44.7273C46.5355 42.009 48 40.5445 48 38.7363V15.2817L37.0909 23.4636V42.009Z" fill="#34A853"/>
<path d="M37.0909 9.28155V23.4634L48 15.2815V10.9179C48 6.87336 43.3827 4.56336 40.1455 6.99064L37.0909 9.28155Z" fill="#FBBC04"/>
<path fill-rule="evenodd" clip-rule="evenodd" d="M10.9091 23.4636V9.28174L24 19.0999L37.0909 9.28174V23.4636L24 33.2817L10.9091 23.4636Z" fill="#EA4335"/>
<path d="M0 10.9179V15.2815L10.9091 23.4634V9.28155L7.85455 6.99064C4.61727 4.56336 0 6.87336 0 10.9179Z" fill="#C5221F"/>
</svg>
