<svg width="68" height="77" viewBox="0 0 68 77" fill="none" xmlns="http://www.w3.org/2000/svg">
<path d="M67.8948 0L61.7095 69.2921L33.9059 77L6.17896 69.3027L0 0H67.8948Z" fill="#E44D26"/>
<path d="M33.9474 71.1083L56.4141 64.8799L61.6996 5.6665H33.9474V71.1083Z" fill="#F16529"/>
<path d="M21.9233 22.666H33.9474V14.1663H12.6342L12.8375 16.4465L14.9267 39.8695H33.9474V31.3698H22.7001L21.9233 22.666ZM23.8389 44.1195H15.3065L16.4972 57.4653L33.9083 62.2984L33.9474 62.2877V53.4444L33.9102 53.4543L24.4441 50.8983L23.8389 44.1195Z" fill="#EBEBEB"/>
<path d="M33.9181 39.8695H44.3846L43.3977 50.893L33.9178 53.4516V62.2944L51.3428 57.4653L51.4705 56.0292L53.4682 33.6522L53.6755 31.3698H33.9181V39.8695ZM33.9181 22.6452V22.666H54.4489L54.6192 20.7556L55.0067 16.4465L55.2098 14.1663H33.9181V22.6455V22.6452Z" fill="white"/>
</svg>
