<svg width="86" height="87" viewBox="0 0 86 87" fill="none" xmlns="http://www.w3.org/2000/svg">
<mask id="mask0_238_64" style="mask-type:luminance" maskUnits="userSpaceOnUse" x="2" y="2" width="82" height="83">
<path d="M2.63324 2.66406H83.3872V84.3571H2.63324V2.66406Z" fill="white"/>
</mask>
<g mask="url(#mask0_238_64)">
<path d="M2.63324 2.66406H83.3872V84.3571H2.63324V2.66406Z" fill="#FFD600"/>
</g>
<path d="M55.4331 63.8131C56.9854 66.3638 58.6722 68.8077 62.2455 68.8077C65.247 68.8077 66.8216 67.2988 66.8216 65.211C66.8216 62.7125 65.193 61.8253 61.8912 60.3707L60.0809 59.59C54.8564 57.3482 51.3819 54.5388 51.3819 48.6047C51.3819 43.1357 55.5204 38.9739 61.9875 38.9739C66.5927 38.9739 69.9015 40.5873 72.2882 44.8127L66.6489 48.4594C65.4084 46.2174 64.0669 45.3347 61.9875 45.3347C59.8655 45.3347 58.5219 46.6893 58.5219 48.4594C58.5219 50.6469 59.8677 51.5321 62.9744 52.8867L64.7847 53.6674C70.9422 56.32 74.4147 59.0295 74.4147 65.1202C74.4147 71.683 69.2912 75.2797 62.4137 75.2797C55.6864 75.2797 51.8663 71.8645 49.7399 67.6368L55.4331 63.8131ZM29.4436 63.9991C30.5787 66.0552 32.3038 67.6368 34.7846 67.6368C37.1579 67.6368 38.524 66.6882 38.524 63.0007V38.9717H46.0004V64.1627C46.0004 71.8031 41.6196 75.2797 35.222 75.2797C29.4414 75.2797 25.269 71.3176 23.5688 67.6368L29.4436 63.9991Z" fill="#000001"/>
</svg>
