<svg width="79" height="87" viewBox="0 0 79 87" fill="none" xmlns="http://www.w3.org/2000/svg">
<path d="M35.5314 1.30887C37.6915 0.0855812 40.4454 0.080253 42.5515 1.30887L74.7997 19.4892C76.8164 20.6233 78.1664 22.8725 78.1475 25.1975V61.6499C78.161 64.072 76.6788 66.3699 74.5512 67.4822L42.4759 85.579C42.3393 85.6543 42.2008 85.725 42.0596 85.7911C41.9186 85.8573 41.7755 85.9188 41.6302 85.9754C41.4851 86.0319 41.3381 86.0837 41.1896 86.1304C41.0409 86.1772 40.891 86.2191 40.7394 86.2559C40.5881 86.2927 40.4357 86.3244 40.2822 86.3511C40.1286 86.378 39.9743 86.3995 39.8194 86.4157C39.6646 86.4322 39.5091 86.4433 39.3534 86.4494C39.1979 86.4555 39.0422 86.4564 38.8864 86.4521C38.7305 86.4477 38.5752 86.4383 38.42 86.4237C38.265 86.409 38.1105 86.3891 37.9567 86.3642C37.8029 86.3392 37.6501 86.3092 37.4982 86.2741C37.3464 86.2389 37.196 86.199 37.0468 86.1537C36.8976 86.1086 36.7501 86.0585 36.6043 86.0035C36.4585 85.9486 36.3149 85.889 36.173 85.8243C36.0311 85.7599 35.8916 85.6906 35.7545 85.6168C35.6172 85.5429 35.4825 85.4647 35.3505 85.3818L25.7252 79.8195C25.0692 79.4279 24.3322 79.1174 23.8677 78.4829C24.2782 77.9322 25.0072 77.8619 25.601 77.6188C26.9403 77.1923 28.166 76.5388 29.3973 75.8474C29.7078 75.6316 30.0885 75.7125 30.3854 75.907L38.5932 80.6539C39.1792 80.9915 39.7731 80.5458 40.2754 80.2622L71.7702 62.4869C72.1591 62.298 72.3749 61.8875 72.3427 61.461V25.3593C72.3858 24.8735 72.1078 24.4305 71.6677 24.2334L39.6733 6.2151C39.6273 6.18338 39.5793 6.15528 39.5295 6.13082C39.4793 6.10636 39.4277 6.08578 39.3745 6.06907C39.3214 6.0526 39.2672 6.04 39.2122 6.03153C39.157 6.02305 39.1017 6.01869 39.0458 6.01845C38.9901 6.01845 38.9349 6.02257 38.8797 6.0308C38.8244 6.03903 38.7704 6.05139 38.7172 6.06785C38.6639 6.08408 38.612 6.10442 38.5619 6.12889C38.5118 6.1531 38.4638 6.18096 38.4178 6.21244L6.46916 24.2685C6.03734 24.4656 5.74018 24.903 5.79418 25.3891V61.4905C5.7564 61.9173 5.98333 62.3195 6.37471 62.5031L14.9121 67.3231C16.5158 68.187 18.4841 68.6731 20.2499 68.0386C20.3458 68.0025 20.44 67.9627 20.533 67.9194C20.6257 67.876 20.7168 67.8293 20.8062 67.7792C20.8955 67.7288 20.983 67.6753 21.0682 67.6186C21.1535 67.5617 21.2363 67.5016 21.3172 67.4384C21.3978 67.3754 21.4761 67.3093 21.5516 67.2401C21.6274 67.171 21.7003 67.0991 21.7706 67.0245C21.8408 66.9499 21.9081 66.8727 21.9726 66.793C22.037 66.7133 22.0982 66.6312 22.1564 66.5469C22.2145 66.4624 22.2692 66.3759 22.3208 66.2875C22.3724 66.1989 22.4206 66.1086 22.4654 66.0163C22.5102 65.924 22.5514 65.8303 22.5889 65.7349C22.6265 65.6397 22.6604 65.543 22.6906 65.4452C22.7209 65.3471 22.7476 65.2483 22.7703 65.1483C22.7931 65.0485 22.812 64.9478 22.827 64.8465C22.8422 64.745 22.8534 64.6433 22.8609 64.5411C22.8684 64.4389 22.8718 64.3365 22.8716 64.234L22.8795 28.3486C22.8418 27.8165 23.3438 27.3765 23.8597 27.4305H27.9635C28.5036 27.4169 28.9275 27.9895 28.8546 28.524L28.8463 64.6363C28.8492 67.8441 27.5315 71.3328 24.5642 72.907C20.9086 74.797 16.3889 74.4001 12.7762 72.583L3.59658 67.5067C1.43651 66.4265 -0.0132292 64.0936 9.10261e-05 61.6743V25.2217C0.00130195 25.0745 0.00735667 24.9272 0.0182551 24.7805C0.0291535 24.6337 0.0448957 24.4872 0.0654817 24.3414C0.0860676 24.1956 0.111497 24.0505 0.141771 23.9064C0.172044 23.7623 0.207161 23.6194 0.24688 23.4775C0.286841 23.3358 0.331161 23.1954 0.380325 23.0566C0.429489 22.9178 0.483013 22.7807 0.54138 22.6453C0.599505 22.5102 0.662232 22.377 0.729318 22.2457C0.796404 22.1147 0.867849 21.9861 0.943411 21.8597C1.01897 21.7333 1.0989 21.6095 1.18269 21.4884C1.26673 21.3676 1.3544 21.2494 1.44619 21.1341C1.53798 21.0188 1.6334 20.9069 1.7327 20.7979C1.83176 20.6892 1.93444 20.5836 2.04076 20.4816C2.14684 20.3797 2.25631 20.2814 2.36917 20.1864C2.48179 20.0917 2.59755 20.0009 2.71647 19.9137C2.83514 19.8268 2.95672 19.7437 3.0812 19.6647C3.20544 19.5858 3.33211 19.5112 3.46143 19.4407L35.5314 1.30887ZM44.8302 26.5773C49.493 26.3072 54.4853 26.399 58.6809 28.6969C61.9289 30.4573 63.7298 34.1512 63.7891 37.7641C63.6973 38.2502 63.1897 38.5203 62.7254 38.4851C61.3755 38.4822 60.02 38.504 58.6647 38.4769C58.0895 38.4985 57.7575 37.9693 57.6846 37.4617C57.2958 35.7336 56.3535 34.0243 54.7282 33.1899C52.2334 31.9398 49.339 32.0018 46.6176 32.0289C44.6304 32.1369 42.4948 32.3069 40.8126 33.4735C39.5166 34.3592 39.1279 36.1737 39.5895 37.5832C40.0216 38.6174 41.2175 38.9494 42.1923 39.2572C47.8137 40.7261 53.7669 40.6074 59.283 42.5163C61.5644 43.3049 63.7974 44.8387 64.5804 47.2283C65.6009 50.4305 65.1553 54.2595 62.8792 56.8301C61.0326 58.9471 58.3433 60.0703 55.657 60.7238C52.0849 61.5203 48.3807 61.5392 44.7546 61.1827C41.3444 60.794 37.7968 59.8974 35.1643 57.5753C32.9126 55.6204 31.8165 52.5746 31.9243 49.6369C31.9514 49.1399 32.4455 48.7943 32.9233 48.8348H36.9734C37.5188 48.797 37.9182 49.2668 37.9453 49.7798C38.1965 51.4 38.8148 53.1552 40.2509 54.1002C43.0211 55.8878 46.496 55.7635 49.6657 55.8149C52.2927 55.6986 55.2411 55.6635 57.3876 53.9246C58.5216 52.9338 58.8536 51.2784 58.5487 49.8527C58.2164 48.6485 56.9287 48.0896 55.8488 47.6926C50.3003 45.9375 44.2795 46.5747 38.785 44.5875C36.5549 43.799 34.3975 42.3085 33.5416 40.016C32.3457 36.7758 32.8938 32.7606 35.4128 30.2764C37.8426 27.8059 41.4066 26.8526 44.7815 26.5124L44.8302 26.5773Z" fill="#8CC84B"/>
</svg>
