<svg xmlns="http://www.w3.org/2000/svg" viewBox="0 0 128 128"><path fill="#FFD845" d="M63.4 1.1C31.5 1.1 33.4 15 33.4 15l.1 14.4h30.5v4.3H24.6S1 30.5 1 63.1s20.6 31.5 20.6 31.5h12.3V79.9s-.7-20.6 20.3-20.6h35s19.6.3 19.6-19V15.8S112.3 1.1 63.4 1.1zM46.1 10.2a6.3 6.3 0 110 12.6 6.3 6.3 0 010-12.6z"/><path fill="#3776AB" d="M64.6 126.9c31.9 0 30-13.9 30-13.9l-.1-14.4H64v-4.3h39.4S127 97.5 127 64.9s-20.6-31.5-20.6-31.5H94.1v14.7s.7 20.6-20.3 20.6h-35S19.2 68.4 19.2 87.7v24.5s-3.5 14.7 45.4 14.7zM81.9 117.8a6.3 6.3 0 110-12.6 6.3 6.3 0 010 12.6z"/></svg>
