<svg width="92" height="78" viewBox="0 0 92 78" fill="none" xmlns="http://www.w3.org/2000/svg">
<g clip-path="url(#clip0_238_34)">
<path d="M54.1722 38.6374C54.1722 38.8834 54.1601 39.1295 54.136 39.3743C54.1118 39.6191 54.0756 39.8627 54.0272 40.1039C53.9789 40.3457 53.9185 40.5839 53.8473 40.8197C53.7754 41.0555 53.692 41.287 53.5972 41.5144C53.503 41.7418 53.3973 41.9637 53.2807 42.1809C53.1641 42.398 53.0367 42.6091 52.8996 42.8136C52.7619 43.0188 52.6151 43.2161 52.458 43.4067C52.301 43.5968 52.1349 43.7791 51.9604 43.9529C51.7852 44.1273 51.6022 44.2921 51.4113 44.4485C51.2198 44.6049 51.0217 44.7511 50.8158 44.8882C50.6104 45.0248 50.3984 45.1511 50.1804 45.2672C49.9623 45.3833 49.7388 45.4885 49.5105 45.583C49.2816 45.6768 49.0491 45.7598 48.8123 45.8314C48.5755 45.903 48.3363 45.9625 48.0935 46.0106C47.8507 46.0587 47.6067 46.0948 47.3603 46.1189C47.1144 46.143 46.8674 46.155 46.6204 46.155C46.3727 46.155 46.1263 46.143 45.8799 46.1189C45.634 46.0948 45.3894 46.0587 45.1466 46.0106C44.9044 45.9625 44.6646 45.903 44.4278 45.8314C44.1911 45.7598 43.9585 45.6768 43.7302 45.583C43.5019 45.4885 43.2784 45.3833 43.0604 45.2672C42.8423 45.1511 42.6303 45.0248 42.4244 44.8882C42.219 44.7511 42.0203 44.6049 41.8294 44.4485C41.638 44.2921 41.4549 44.1273 41.2804 43.9529C41.1052 43.7791 40.9391 43.5968 40.7827 43.4067C40.6257 43.2161 40.4783 43.0188 40.3412 42.8136C40.2035 42.6091 40.0766 42.398 39.96 42.1809C39.8435 41.9637 39.7378 41.7418 39.6429 41.5144C39.5487 41.287 39.4654 41.0555 39.3935 40.8197C39.3216 40.5839 39.2618 40.3457 39.2135 40.1039C39.1652 39.8627 39.1289 39.6191 39.1048 39.3743C39.0806 39.1295 39.0679 38.8834 39.0679 38.6374C39.0679 38.3914 39.0806 38.1454 39.1048 37.9006C39.1289 37.6552 39.1652 37.4122 39.2135 37.171C39.2618 36.9292 39.3216 36.691 39.3935 36.4552C39.4654 36.2194 39.5487 35.9878 39.6429 35.7605C39.7378 35.5331 39.8435 35.3105 39.96 35.0934C40.0766 34.8762 40.2035 34.6657 40.3412 34.4606C40.4783 34.2561 40.6257 34.0582 40.7827 33.8681C40.9391 33.6781 41.1052 33.4958 41.2804 33.3214C41.4549 33.1475 41.638 32.9821 41.8294 32.8263C42.0203 32.6699 42.219 32.5232 42.4244 32.3866C42.6303 32.2501 42.8423 32.1232 43.0604 32.0071C43.2784 31.891 43.5019 31.7863 43.7302 31.6919C43.9585 31.5975 44.1911 31.5151 44.4278 31.4435C44.6646 31.3719 44.9044 31.3124 45.1466 31.2642C45.3894 31.2161 45.634 31.18 45.8799 31.156C46.1263 31.1319 46.3727 31.1199 46.6204 31.1199C46.8674 31.1199 47.1144 31.1319 47.3603 31.156C47.6067 31.18 47.8507 31.2161 48.0935 31.2642C48.3363 31.3124 48.5755 31.3719 48.8123 31.4435C49.0491 31.5151 49.2816 31.5975 49.5105 31.6919C49.7388 31.7863 49.9623 31.891 50.1804 32.0071C50.3984 32.1232 50.6104 32.2501 50.8158 32.3866C51.0217 32.5232 51.2198 32.6699 51.4113 32.8263C51.6022 32.9821 51.7852 33.1475 51.9604 33.3214C52.1349 33.4958 52.301 33.6781 52.458 33.8681C52.6151 34.0582 52.7619 34.2561 52.8996 34.4606C53.0367 34.6657 53.1641 34.8762 53.2807 35.0934C53.3973 35.3105 53.503 35.5331 53.5972 35.7605C53.692 35.9878 53.7754 36.2194 53.8473 36.4552C53.9185 36.691 53.9789 36.9292 54.0272 37.171C54.0756 37.4122 54.1118 37.6552 54.136 37.9006C54.1601 38.1454 54.1722 38.3914 54.1722 38.6374Z" fill="#00D8FF"/>
<mask id="mask0_238_34" style="mask-type:luminance" maskUnits="userSpaceOnUse" x="3" y="3" width="105" height="72">
<path d="M3.29205 3.00586H107.618V74.4545H3.29205V3.00586Z" fill="white"/>
</mask>
<g mask="url(#mask0_238_34)">
<path d="M46.6217 23.3564C56.7611 23.3564 66.1811 24.8049 73.2829 27.2391C81.8404 30.1714 87.1013 34.6165 87.1013 38.6418C87.1013 42.836 81.5257 47.5584 72.3364 50.5894C65.3892 52.8805 56.247 54.0763 46.6217 54.0763C36.7535 54.0763 27.4084 52.9539 20.3832 50.5641C11.4947 47.5398 6.14087 42.756 6.14087 38.6418C6.14087 34.649 11.1644 30.2382 19.601 27.3101C26.7295 24.8361 36.3814 23.3564 46.6211 23.3564H46.6217Z" stroke="#00D8FF" stroke-width="2.90543"/>
</g>
<mask id="mask1_238_34" style="mask-type:luminance" maskUnits="userSpaceOnUse" x="3" y="-1" width="89" height="79">
<path d="M3.29199 -0.442627H91.2274V77.8583H3.29199V-0.442627Z" fill="white"/>
</mask>
<g mask="url(#mask1_238_34)">
<path d="M33.2527 31.0384C38.3184 22.295 44.2842 14.8966 49.9503 9.98712C56.7773 4.07317 63.2728 1.75739 66.776 3.76761C70.426 5.86324 71.7499 13.0307 69.7966 22.4695C68.3216 29.6051 64.7937 38.0856 59.9852 46.3863C55.0553 54.8958 49.4103 62.3935 43.8209 67.256C36.7486 73.4105 29.9113 75.6373 26.3314 73.582C22.8572 71.5892 21.5284 65.0521 23.1948 56.3147C24.6034 48.9313 28.1374 39.8697 33.2509 31.0402L33.2527 31.0384Z" stroke="#00D8FF" stroke-width="2.90543"/>
</g>
<mask id="mask2_238_34" style="mask-type:luminance" maskUnits="userSpaceOnUse" x="3" y="-1" width="89" height="79">
<path d="M3.29199 -0.442627H91.382V77.8583H3.29199V-0.442627Z" fill="white"/>
</mask>
<g mask="url(#mask2_238_34)">
<path d="M33.2652 46.4091C28.1861 37.6759 24.727 28.8345 23.2834 21.4962C21.5457 12.6547 22.7742 5.89503 26.2732 3.8782C29.9202 1.77656 36.8191 4.21444 44.0581 10.6126C49.5309 15.4499 55.1505 22.7262 59.9729 31.0179C64.9167 39.5195 68.6228 48.1324 70.064 55.3811C71.888 64.554 70.4119 71.562 66.8344 73.624C63.3638 75.6246 57.0121 73.5067 50.2394 67.7052C44.5171 62.803 38.3949 55.2295 33.2652 46.4079V46.4091Z" stroke="#00D8FF" stroke-width="2.90543"/>
</g>
</g>
<defs>
<clipPath id="clip0_238_34">
<rect width="92" height="78" fill="white"/>
</clipPath>
</defs>
</svg>
