<svg width="96" height="73" viewBox="0 0 96 73" fill="none" xmlns="http://www.w3.org/2000/svg">
<g clip-path="url(#clip0_238_102)">
<path d="M82.611 41.9579C79.2638 41.9757 76.3547 42.7935 73.9188 44.0025C73.025 42.2068 72.1312 40.6067 71.9735 39.4333C71.7983 38.0643 71.588 37.2287 71.7983 35.5931C72.0086 33.9574 72.9549 31.6284 72.9374 31.4506C72.9199 31.2728 72.7271 30.4372 70.7994 30.4194C68.8717 30.4017 67.2068 30.7928 67.014 31.3084C66.8213 31.824 66.4533 32.9974 66.2079 34.2063C65.8749 35.9842 62.3525 42.3313 60.3372 45.6559C59.6887 44.3581 59.128 43.2202 59.0053 42.3135C58.83 40.9445 58.6197 40.1089 58.83 38.4733C59.0403 36.8376 59.9867 34.5086 59.9691 34.3308C59.9516 34.153 59.7588 33.3174 57.8311 33.2996C55.9034 33.2818 54.2386 33.673 54.0458 34.1886C53.853 34.7041 53.6427 35.9131 53.2397 37.0865C52.8366 38.2599 48.1575 48.8561 46.9308 51.5941C46.2999 52.9986 45.7567 54.1187 45.3711 54.8831C45.3711 54.8831 45.3536 54.9365 45.301 55.0254C44.968 55.6832 44.7753 56.0388 44.7753 56.0388C44.7753 56.0388 44.7753 56.0388 44.7753 56.0565C44.5124 56.5366 44.232 56.9811 44.0918 56.9811C43.9867 56.9811 43.7939 55.701 44.1269 53.9586C44.8278 50.2784 46.4927 44.5536 46.4752 44.3581C46.4752 44.2514 46.7906 43.2558 45.3886 42.7402C44.0217 42.2246 43.531 43.078 43.4084 43.078C43.2857 43.078 43.1981 43.3802 43.1981 43.3802C43.1981 43.3802 44.7227 36.9443 40.289 36.9443C37.5201 36.9443 33.6997 40.02 31.807 42.7935C30.6154 43.4513 28.0743 44.8559 25.358 46.3671C24.324 46.9538 23.255 47.5405 22.2561 48.0916C22.186 48.0205 22.1159 47.9316 22.0458 47.8605C16.6833 42.0468 6.76432 37.9399 7.18491 30.135C7.34263 27.2904 8.30649 19.8232 26.2342 10.756C40.9899 3.37779 52.7315 5.42236 54.7643 9.95597C57.6734 16.4275 48.473 28.446 33.2265 30.1883C27.4084 30.8461 24.3591 28.5704 23.588 27.717C22.7818 26.8281 22.6592 26.7748 22.3613 26.9526C21.8706 27.2192 22.186 28.0193 22.3613 28.4815C22.8169 29.6905 24.692 31.824 27.864 32.8729C30.6679 33.7974 37.485 34.313 45.7391 31.0773C54.9746 27.4504 62.1948 17.3698 60.0743 8.92479C57.9538 0.355384 43.9341 -2.47145 30.6679 2.31106C22.7818 5.15568 14.2298 9.63595 8.07867 15.4674C0.77089 22.4012 -0.385736 28.4282 0.0874299 30.9528C1.78732 39.9133 13.9669 45.7448 18.8388 50.0651C18.5935 50.2073 18.3656 50.3318 18.1729 50.4384C15.7369 51.6652 6.44888 56.5899 4.13562 61.7991C1.50693 67.7017 4.55621 71.9331 6.57155 72.502C12.8278 74.2621 19.2594 71.0975 22.7117 65.8705C26.1641 60.6435 25.7435 53.852 24.1488 50.7407C24.1312 50.7051 24.1137 50.6696 24.0787 50.634C24.7096 50.2606 25.358 49.8695 25.9889 49.4962C27.2331 48.7494 28.4598 48.0561 29.5113 47.4871C28.9155 49.1406 28.4774 51.114 28.2671 53.9586C28.0042 57.3011 29.3536 61.6391 31.1236 63.3459C31.9122 64.0926 32.841 64.1104 33.4368 64.1104C35.5047 64.1104 36.4335 62.368 37.4675 60.3057C38.7293 57.7811 39.8684 54.8476 39.8684 54.8476C39.8684 54.8476 38.4489 62.777 42.3043 62.777C43.7063 62.777 45.1258 60.928 45.7567 59.9857C45.7567 60.0035 45.7567 60.0035 45.7567 60.0035C45.7567 60.0035 45.7917 59.9501 45.8618 59.8257C46.002 59.5945 46.0896 59.4523 46.0896 59.4523C46.0896 59.4523 46.0896 59.4345 46.0896 59.4168C46.6504 58.4211 47.9122 56.1632 49.7873 52.4119C52.2057 47.576 54.5365 41.5312 54.5365 41.5312C54.5365 41.5312 54.7468 43.0069 55.4653 45.4604C55.8859 46.9004 56.7621 48.4828 57.4631 50.0117C56.9023 50.8118 56.5518 51.2563 56.5518 51.2563C56.5518 51.2563 56.5518 51.2563 56.5694 51.274C56.1137 51.8785 55.623 52.5363 55.0798 53.1764C53.1696 55.4876 50.8914 58.1367 50.5759 58.9012C50.2079 59.8079 50.2955 60.4657 50.9965 60.9991C51.5047 61.3902 52.416 61.4435 53.3448 61.3902C55.0622 61.2658 56.2714 60.8391 56.8673 60.5724C57.7961 60.2346 58.8826 59.719 59.899 58.9545C61.7742 57.55 62.9133 55.541 62.8081 52.8919C62.7556 51.434 62.2824 49.9762 61.7041 48.6072C61.8793 48.3583 62.037 48.1094 62.2123 47.8605C65.174 43.4691 67.4697 38.651 67.4697 38.651C67.4697 38.651 67.68 40.1267 68.3985 42.5802C68.749 43.8247 69.4675 45.1759 70.0984 46.4915C67.312 48.785 65.5945 51.4518 64.9812 53.1942C63.8771 56.4299 64.7358 57.8878 66.3656 58.2256C67.1017 58.3856 68.1531 58.03 68.9242 57.6922C69.9056 57.3722 71.0622 56.821 72.1663 56.0032C74.0414 54.5987 75.8465 52.643 75.7413 49.994C75.6887 48.785 75.3733 47.5938 74.9352 46.4382C77.301 45.4426 80.3503 44.8914 84.2408 45.3537C92.5825 46.3493 94.2298 51.6296 93.9144 53.852C93.5989 56.0743 91.8465 57.2833 91.2682 57.6566C90.6898 58.03 90.4971 58.1545 90.5497 58.4211C90.6198 58.8123 90.9001 58.7945 91.3908 58.7234C92.0743 58.5989 95.772 56.9277 95.9297 52.8386C96.1926 47.6116 91.2857 41.9046 82.611 41.9579ZM18.2605 63.9681C15.4916 67.0261 11.6362 68.1817 9.97133 67.2039C8.18382 66.1549 8.8848 61.6391 12.2846 58.4034C14.3525 56.4299 17.0162 54.5987 18.7862 53.4786C19.1893 53.2297 19.7851 52.8741 20.5036 52.4297C20.6263 52.3585 20.6964 52.323 20.6964 52.323C20.8366 52.2341 20.9768 52.1452 21.117 52.0563C22.3613 56.6788 21.1696 60.7502 18.2605 63.9681ZM38.4138 50.0651C37.45 52.4474 35.4346 58.5456 34.2079 58.2078C33.1564 57.9233 32.508 53.3008 33.9976 48.7317C34.7512 46.4382 36.3459 43.7002 37.2747 42.6335C38.7818 40.9267 40.4467 40.3578 40.8498 41.0512C41.358 41.9579 39.0097 48.5717 38.4138 50.0651ZM55.0447 58.1367C54.6417 58.35 54.2561 58.4923 54.0809 58.3856C53.9582 58.3145 54.2561 58.03 54.2561 58.03C54.2561 58.03 56.3415 55.7543 57.1652 54.7231C57.6384 54.1187 58.1991 53.4075 58.795 52.6075C58.795 52.6786 58.795 52.7675 58.795 52.8386C58.795 55.5587 56.2013 57.39 55.0447 58.1367ZM67.8728 55.1676C67.5748 54.9543 67.6274 54.2431 68.6263 52.0208C69.0119 51.1496 69.9231 49.6917 71.4828 48.2872C71.6581 48.8561 71.7807 49.4073 71.7632 49.9228C71.7457 53.3542 69.3273 54.6342 67.8728 55.1676Z" fill="#CD6799"/>
</g>
<defs>
<clipPath id="clip0_238_102">
<rect width="96" height="73" fill="white"/>
</clipPath>
</defs>
</svg>
