<svg width="82" height="83" viewBox="0 0 82 83" fill="none" xmlns="http://www.w3.org/2000/svg">
<path fill-rule="evenodd" clip-rule="evenodd" d="M0 0V83H82V0H0ZM62.3079 40.314V40.3152C63.0943 40.3177 63.9879 40.3586 64.66 40.4324C67.3972 40.7321 69.5288 41.9274 71.3422 44.1788C72.2453 45.3003 72.5543 45.791 72.4884 46.0009C72.446 46.1363 71.8264 46.5856 69.8564 47.9093C67.9212 49.2096 67.2977 49.5991 67.153 49.5991C67.0062 49.5991 66.7004 49.2806 66.2596 48.669C65.4106 47.4913 64.5437 46.9538 63.2037 46.7745C61.7626 46.5813 60.4699 47.0411 59.8368 47.9725C59.2957 48.7681 59.214 50.0487 59.6441 50.979C60.1424 52.0567 61.0444 52.6524 64.501 54.1867C68.4876 55.956 70.5079 57.1672 71.9793 58.6701C73.5638 60.2887 74.3665 62.1575 74.6131 64.8009C74.7335 66.0893 74.5864 67.6164 74.2222 68.8579C73.3289 71.9015 70.9182 74.1301 67.3848 75.179C66.4081 75.4688 65.4993 75.642 64.6002 75.7086C63.2279 75.8109 61.2633 75.7545 60.081 75.5803C57.0896 75.1393 53.7127 73.3773 52.0289 71.3794C51.2023 70.3988 50.1471 68.7848 50.1471 68.5008C50.1471 68.3638 50.2141 68.2861 50.4799 68.115C51.268 67.6083 55.7846 64.9948 55.8722 64.9948C55.9252 64.9948 56.1611 65.2763 56.3963 65.6202C56.9291 66.3989 58.2393 67.7373 58.9053 68.1838C59.4494 68.5486 60.1452 68.8415 60.9712 69.0528C61.4443 69.1722 61.6947 69.1935 62.727 69.1935C63.7816 69.1931 63.9981 69.1751 64.4699 69.0468C65.7179 68.7068 66.6921 68.0034 67.1049 67.144C67.2859 66.7727 67.2894 66.7263 67.2894 65.8257V64.892L67.0677 64.4466C66.5303 63.3671 65.3726 62.6264 61.7125 61.0216C60.0312 60.2845 57.9721 59.2451 57.1682 58.7279C55.3336 57.5478 54.062 56.1987 53.2275 54.5472C52.3975 52.9049 52.2737 52.2936 52.2717 49.8242C52.2697 47.8911 52.2665 47.9148 52.6619 46.6809C53.0206 45.5613 53.755 44.3106 54.5657 43.4385C56.1838 41.6974 58.5477 40.5786 61.0787 40.3561C61.4024 40.325 61.8362 40.3126 62.3079 40.314ZM40.5297 40.6958C45.4041 40.6983 48.1991 40.7154 48.2439 40.7439C48.3284 40.7969 48.3389 41.2262 48.3389 43.9667V47.1282L43.475 47.1461L38.6111 47.164V61.1423C38.6111 68.8306 38.5957 75.1665 38.5746 75.2224C38.5402 75.3165 38.1661 75.3238 35.0013 75.3238H31.4665L31.43 75.1791C31.4064 75.0998 31.3892 68.7637 31.3888 61.099L31.3876 47.1632L26.5237 47.1457L21.6597 47.1278V44.0037C21.6597 41.5259 21.6766 40.8623 21.7418 40.7964C21.8087 40.7266 24.291 40.7086 34.9868 40.6979C37.049 40.6958 38.9048 40.6948 40.5297 40.6958Z" fill="#0288D1"/>
</svg>
