<svg width="89" height="88" viewBox="0 0 89 88" fill="none" xmlns="http://www.w3.org/2000/svg">
<path d="M77.539 16.4828L62.9081 9.43826C61.2145 8.62285 59.1906 8.96681 57.8616 10.2959L9.96529 53.9661C8.677 55.1406 8.67849 57.1689 9.96849 58.3416L13.8808 61.8983C14.9354 62.857 16.5237 62.9276 17.6592 62.0662L75.3374 18.3103C77.2725 16.8424 80.0518 18.2225 80.0518 20.6513V20.4815C80.0518 18.7766 79.0751 17.2224 77.539 16.4828Z" fill="#0065A9"/>
<g filter="url(#filter0_d_238_109)">
<path d="M77.539 72.1591L62.9081 79.2036C61.2145 80.0192 59.1906 79.6751 57.8615 78.346L9.96526 34.6759C8.67697 33.5013 8.67845 31.473 9.96846 30.3003L13.8808 26.7436C14.9354 25.7848 16.5237 25.7142 17.6592 26.5756L75.3374 70.3315C77.2724 71.7995 80.0517 70.4194 80.0517 67.9906V68.1605C80.0517 69.8653 79.0751 71.4195 77.539 72.1591Z" fill="#007ACC"/>
</g>
<g filter="url(#filter1_d_238_109)">
<path d="M62.9087 79.2051C61.2147 80.0201 59.1908 79.6754 57.8616 78.3461C59.4993 79.9839 62.2996 78.824 62.2996 76.5079V12.1346C62.2996 9.81847 59.4993 8.65855 57.8616 10.2963C59.1908 8.96709 61.2147 8.62265 62.9087 9.43733L77.5371 16.4722C79.0742 17.2114 80.0517 18.7661 80.0517 20.4718V68.171C80.0517 69.8766 79.0742 71.4313 77.5371 72.1705L62.9087 79.2051Z" fill="#1F9CF0"/>
</g>
<g style="mix-blend-mode:overlay" opacity="0.25">
<path style="mix-blend-mode:overlay" fill-rule="evenodd" clip-rule="evenodd" d="M59.3535 79.3406C60.4719 79.7762 61.7472 79.7483 62.876 79.2052L77.4954 72.1706C79.0316 71.4314 80.0085 69.8766 80.0085 68.1709V20.4718C80.0085 18.7661 79.0317 17.2113 77.4955 16.4721L62.876 9.43733C61.3946 8.72448 59.6608 8.89909 58.3605 9.84434C58.1748 9.97938 57.9979 10.1301 57.8319 10.2963L29.8446 35.8296L17.6539 26.5759C16.5192 25.7144 14.9318 25.7851 13.8778 26.7437L9.96787 30.3004C8.67865 31.4732 8.67717 33.5014 9.96467 34.676L20.5368 44.3212L9.96467 53.9664C8.67717 55.1411 8.67865 57.1693 9.96787 58.342L13.8778 61.8987C14.9318 62.8574 16.5192 62.928 17.6539 62.0666L29.8446 52.8128L57.8319 78.3462C58.2746 78.7891 58.7945 79.1228 59.3535 79.3406ZM62.2672 28.2015L41.0313 44.3212L62.2672 60.441V28.2015Z" fill="url(#paint0_linear_238_109)"/>
</g>
<defs>
<filter id="filter0_d_238_109" x="0.66666" y="17.6408" width="87.7184" height="70.3342" filterUnits="userSpaceOnUse" color-interpolation-filters="sRGB">
<feFlood flood-opacity="0" result="BackgroundImageFix"/>
<feColorMatrix in="SourceAlpha" type="matrix" values="0 0 0 0 0 0 0 0 0 0 0 0 0 0 0 0 0 0 127 0" result="hardAlpha"/>
<feOffset/>
<feGaussianBlur stdDeviation="4.16667"/>
<feColorMatrix type="matrix" values="0 0 0 0 0 0 0 0 0 0 0 0 0 0 0 0 0 0 0.25 0"/>
<feBlend mode="overlay" in2="BackgroundImageFix" result="effect1_dropShadow_238_109"/>
<feBlend mode="normal" in="SourceGraphic" in2="effect1_dropShadow_238_109" result="shape"/>
</filter>
<filter id="filter1_d_238_109" x="49.5282" y="0.66666" width="38.8569" height="87.3093" filterUnits="userSpaceOnUse" color-interpolation-filters="sRGB">
<feFlood flood-opacity="0" result="BackgroundImageFix"/>
<feColorMatrix in="SourceAlpha" type="matrix" values="0 0 0 0 0 0 0 0 0 0 0 0 0 0 0 0 0 0 127 0" result="hardAlpha"/>
<feOffset/>
<feGaussianBlur stdDeviation="4.16667"/>
<feColorMatrix type="matrix" values="0 0 0 0 0 0 0 0 0 0 0 0 0 0 0 0 0 0 0.25 0"/>
<feBlend mode="overlay" in2="BackgroundImageFix" result="effect1_dropShadow_238_109"/>
<feBlend mode="normal" in="SourceGraphic" in2="effect1_dropShadow_238_109" result="shape"/>
</filter>
<linearGradient id="paint0_linear_238_109" x1="44.5043" y1="9" x2="44.5043" y2="79.6425" gradientUnits="userSpaceOnUse">
<stop stop-color="white"/>
<stop offset="1" stop-color="white" stop-opacity="0"/>
</linearGradient>
</defs>
</svg>
