<svg xmlns="http://www.w3.org/2000/svg" xmlns:xlink="http://www.w3.org/1999/xlink" width="1080" zoomAndPan="magnify" viewBox="0 0 810 809.999993" height="1080" preserveAspectRatio="xMidYMid meet" version="1.0"><defs><clipPath id="fe6aa4c473"><path d="M 167 126.433594 L 589 126.433594 L 589 284 L 167 284 Z M 167 126.433594 " clip-rule="nonzero"/></clipPath><clipPath id="284f3ac745"><path d="M 60.5625 197 L 749.8125 197 L 749.8125 683.683594 L 60.5625 683.683594 Z M 60.5625 197 " clip-rule="nonzero"/></clipPath></defs><g clip-path="url(#fe6aa4c473)"><path fill="#ffffff" d="M 185.769531 279.417969 C 185.773438 279.417969 185.78125 279.410156 185.789062 279.410156 C 185.792969 279.410156 185.796875 279.410156 185.800781 279.40625 L 201.15625 275.582031 C 245.386719 201.6875 326.246094 152.105469 418.472656 152.105469 C 469.257812 152.105469 516.585938 167.140625 556.261719 192.988281 L 565.921875 190.582031 L 588.351562 185 C 588.355469 185 588.355469 185 588.363281 185 L 588.714844 184.910156 C 541.609375 148.425781 482.539062 126.691406 418.476562 126.691406 C 308.347656 126.691406 212.945312 190.933594 167.789062 283.898438 L 171.476562 282.980469 Z M 185.769531 279.417969 " fill-opacity="1" fill-rule="nonzero"/></g><path fill="#ffffff" d="M 140.453125 326.707031 L 116.234375 332.742188 C 116.234375 332.742188 110.015625 362.878906 120.246094 403.957031 C 120.246094 403.957031 117.136719 368.816406 119.226562 355.320312 C 119.226562 355.320312 121.332031 381.851562 127.066406 401.113281 C 126.921875 400.007812 121.800781 360.984375 122.859375 354.789062 C 122.859375 354.789062 128.050781 385.390625 132.460938 400.863281 C 132.203125 399.183594 126.441406 362.1875 126.800781 354.375 C 126.800781 354.375 133.855469 386.804688 137.429688 399.664062 C 137.269531 398.621094 131.507812 361.375 132.777344 353.074219 C 132.777344 353.074219 136.613281 379.015625 142.21875 398.496094 C 142.21875 398.484375 136.140625 345.644531 140.453125 326.707031 Z M 140.453125 326.707031 " fill-opacity="1" fill-rule="nonzero"/><path fill="#ffffff" d="M 176.78125 389.847656 C 176.625 388.804688 170.863281 351.5625 172.128906 343.269531 C 172.128906 343.269531 175.964844 369.210938 181.570312 388.691406 C 181.570312 388.691406 175.5 335.84375 179.808594 316.910156 L 155.59375 322.945312 C 155.59375 322.945312 149.375 353.078125 159.605469 394.164062 C 159.605469 394.164062 156.492188 359.015625 158.585938 345.515625 C 158.585938 345.515625 160.691406 372.046875 166.425781 391.308594 C 166.28125 390.203125 161.160156 351.183594 162.21875 344.992188 C 162.21875 344.992188 167.398438 375.585938 171.820312 391.0625 C 171.5625 389.378906 165.800781 352.386719 166.15625 344.574219 C 166.152344 344.570312 173.210938 376.992188 176.78125 389.847656 Z M 176.78125 389.847656 " fill-opacity="1" fill-rule="nonzero"/><path fill="#ffffff" d="M 215.949219 523.617188 C 210.941406 516.90625 198.578125 481.402344 198.191406 480.296875 C 201.066406 493.324219 210.058594 525.269531 210.058594 525.269531 C 206.054688 518.492188 193.621094 482.65625 193.230469 481.53125 C 196.589844 497.253906 206.382812 526.753906 206.382812 526.753906 C 202.488281 521.703125 188.355469 483.847656 188.355469 483.847656 C 192.320312 503.550781 202.929688 527.992188 202.929688 527.992188 C 194.746094 517.054688 181.007812 484.554688 181.007812 484.554688 C 191.246094 525.632812 210.878906 549.332031 210.878906 549.332031 L 235.097656 543.296875 C 222.40625 528.59375 202.964844 479.082031 202.964844 479.082031 C 207.160156 498.914062 215.949219 523.617188 215.949219 523.617188 Z M 215.949219 523.617188 " fill-opacity="1" fill-rule="nonzero"/><path fill="#ffffff" d="M 175.835938 533.605469 C 170.828125 526.894531 158.46875 491.402344 158.082031 490.289062 C 160.957031 503.308594 169.949219 535.257812 169.949219 535.257812 C 165.945312 528.480469 153.511719 492.640625 153.117188 491.519531 C 156.480469 507.238281 166.273438 536.742188 166.273438 536.742188 C 162.378906 531.695312 148.246094 493.835938 148.246094 493.835938 C 152.207031 513.539062 162.816406 537.980469 162.816406 537.980469 C 154.632812 527.042969 140.898438 494.542969 140.898438 494.542969 C 151.132812 535.621094 170.769531 559.320312 170.769531 559.320312 L 194.988281 553.285156 C 182.292969 538.582031 162.851562 489.070312 162.851562 489.070312 C 167.046875 508.902344 175.835938 533.605469 175.835938 533.605469 Z M 175.835938 533.605469 " fill-opacity="1" fill-rule="nonzero"/><path fill="#ffffff" d="M 101.679688 413.664062 C 101.679688 413.664062 104.980469 429.171875 109.09375 439.621094 C 108.90625 438.570312 102.753906 404.203125 102.984375 393.964844 L 93.238281 396.386719 C 93.238281 396.386719 91.449219 416.394531 99.359375 442.070312 C 99.359375 442.070312 96.671875 423.75 97.871094 414.984375 C 97.871094 414.984375 98.886719 425.832031 104.320312 440.839844 C 104.320312 440.839844 100.210938 420.601562 101.679688 413.664062 Z M 101.679688 413.664062 " fill-opacity="1" fill-rule="nonzero"/><path fill="#ffffff" d="M 123.640625 497.253906 C 119.089844 491.792969 113.222656 472.027344 113.222656 472.027344 C 115.421875 487.527344 119.503906 497.488281 119.660156 497.875 C 114.484375 490.691406 108.261719 473.265625 108.261719 473.265625 C 113.328125 499.652344 124.296875 516.476562 124.296875 516.476562 L 134.039062 514.050781 C 129.03125 505.113281 118.34375 471.894531 118.011719 470.863281 C 119.261719 481.84375 123.511719 496.792969 123.640625 497.253906 Z M 123.640625 497.253906 " fill-opacity="1" fill-rule="nonzero"/><g clip-path="url(#284f3ac745)"><path fill="#ffffff" d="M 740.933594 283.511719 C 738.898438 279.664062 734.40625 277.792969 730.171875 278.84375 L 710.441406 283.753906 C 703.210938 262.453125 693.433594 241.421875 684.769531 243.578125 L 671.992188 246.757812 C 663.75 226.171875 648.820312 194.398438 636.167969 197.542969 L 593.9375 208.066406 L 557.558594 217.121094 C 542.773438 220.804688 545.605469 270.210938 556.199219 322.160156 L 507.082031 334.378906 L 501.5 327.339844 L 501.800781 311.695312 L 487.9375 290.734375 L 456.632812 281.28125 L 442.464844 300.183594 L 416.894531 299.585938 L 395.8125 311.992188 L 367.152344 317.75 L 345.601562 334.40625 L 320.355469 342.078125 L 309.890625 370.136719 L 310.039062 377.664062 L 305.355469 378.808594 L 241.898438 394.605469 L 241.875 394.613281 C 226.847656 343.75 206.160156 298.785156 191.375 302.464844 L 154.996094 311.523438 L 154.871094 311.550781 L 112.765625 322.039062 C 100.113281 325.183594 101.835938 360.257812 104.226562 382.300781 L 91.441406 385.480469 C 82.777344 387.640625 84.011719 410.796875 87.625 433.003906 L 67.898438 437.921875 C 63.667969 438.976562 60.582031 442.734375 60.585938 447.085938 C 60.621094 459.714844 63.578125 471.59375 69.472656 482.761719 C 71.511719 486.613281 76 488.488281 80.234375 487.4375 L 99.601562 482.609375 C 106.941406 505.386719 117.507812 529.738281 126.808594 527.421875 L 140.109375 524.109375 C 149.535156 547.015625 162.910156 572.753906 174.519531 569.859375 L 216.75 559.339844 L 253.132812 550.28125 C 268.019531 546.578125 265.050781 496.480469 254.257812 444.121094 L 306.351562 431.125 L 311.039062 429.957031 L 311.039062 430.035156 L 311.339844 446.007812 L 349.867188 528.304688 L 346.359375 647.585938 C 302.949219 634.664062 264.375 610.378906 234.121094 578.207031 L 222.339844 581.136719 C 222.335938 581.136719 222.324219 581.136719 222.324219 581.140625 L 206.238281 585.140625 C 257.359375 645.265625 333.53125 683.46875 418.457031 683.46875 C 549.40625 683.46875 659.523438 592.65625 689.121094 470.722656 L 661.285156 477.652344 C 661.28125 477.652344 661.28125 477.652344 661.28125 477.652344 L 660.871094 477.757812 C 636.441406 559.03125 572.140625 623.21875 490.800781 647.515625 L 476.125 503.371094 L 534.578125 408.496094 L 525.546875 382.382812 L 568.460938 371.6875 L 568.480469 371.683594 C 583.53125 422.996094 604.414062 468.640625 619.308594 464.933594 L 655.6875 455.878906 L 655.8125 455.847656 L 697.917969 445.359375 C 709.527344 442.46875 709.265625 413.46875 706.835938 388.816406 L 720.136719 385.503906 C 729.433594 383.191406 727.335938 356.730469 723.128906 333.179688 L 742.507812 328.351562 C 746.738281 327.292969 749.832031 323.527344 749.824219 319.183594 C 749.792969 306.558594 746.835938 294.679688 740.933594 283.511719 Z M 739.710938 294.582031 C 741.617188 299.214844 742.460938 304.105469 742.460938 304.105469 L 718.246094 310.132812 C 718.078125 309.476562 717.914062 308.804688 717.726562 308.117188 C 717.507812 307.277344 717.285156 306.421875 717.046875 305.539062 C 716.964844 305.222656 716.875 304.90625 716.789062 304.585938 C 716.785156 304.566406 716.777344 304.546875 716.769531 304.527344 C 716.757812 304.457031 716.742188 304.394531 716.722656 304.324219 C 716.683594 304.171875 716.636719 304.015625 716.59375 303.855469 C 716.558594 303.730469 716.523438 303.613281 716.488281 303.484375 C 716.339844 302.9375 716.1875 302.394531 716.035156 301.839844 C 715.917969 301.414062 715.796875 300.996094 715.683594 300.570312 Z M 734.976562 282.769531 C 736.042969 284.785156 736.925781 287.183594 737.207031 288.304688 L 713.660156 293.699219 C 713.519531 293.238281 713.375 292.773438 713.226562 292.3125 C 712.835938 291.050781 712.441406 289.777344 712.03125 288.484375 Z M 557.21875 327.058594 L 557.222656 327.058594 L 561.582031 325.972656 L 561.613281 325.972656 L 565.472656 324.996094 C 565.488281 325.019531 565.507812 325.046875 565.519531 325.074219 C 565.863281 325.601562 566.21875 326.179688 566.601562 326.78125 C 566.644531 326.863281 566.695312 326.9375 566.738281 327.019531 C 566.867188 327.238281 567 327.453125 567.132812 327.683594 L 567.132812 327.6875 C 567.332031 328.035156 567.53125 328.378906 567.738281 328.75 C 567.9375 329.117188 568.144531 329.492188 568.347656 329.894531 L 562.765625 331.296875 L 562.761719 331.296875 L 558.371094 332.382812 L 558.367188 332.382812 L 512.210938 343.875 L 511.996094 343.921875 L 510.21875 338.761719 L 510.429688 338.714844 Z M 565.777344 315.394531 C 566.847656 316.605469 567.816406 317.839844 568.699219 319.058594 C 575.347656 328.320312 576.863281 337.332031 576.863281 337.332031 C 582.195312 354.761719 581.925781 364.164062 581.121094 368.550781 C 580.699219 370.824219 580.144531 371.742188 580.144531 371.742188 C 577.347656 372.195312 577.632812 370.453125 577.632812 370.453125 C 577.71875 370.085938 577.792969 369.730469 577.867188 369.363281 C 579.625 360.484375 577.835938 350.824219 574.382812 337.945312 C 570.796875 324.546875 564.695312 320.054688 564.695312 320.054688 C 564.695312 320.050781 564.691406 320.050781 564.691406 320.039062 C 563.097656 316.6875 565.777344 315.394531 565.777344 315.394531 Z M 570.527344 314.460938 C 573.113281 313.253906 574.605469 313.445312 574.605469 313.445312 C 575.59375 314.515625 576.515625 315.675781 577.378906 316.890625 C 582.667969 324.332031 585.417969 333.519531 585.515625 333.855469 L 582.914062 331.691406 C 588.34375 354.980469 585.734375 365.03125 585.734375 365.03125 C 584.617188 340.582031 576.859375 324.671875 572.875 318.015625 C 571.46875 315.652344 570.527344 314.460938 570.527344 314.460938 Z M 590.289062 375.613281 C 590.289062 375.613281 593.0625 372.386719 594.335938 365.269531 L 594.335938 365.261719 C 595.074219 361.035156 595.269531 355.410156 594.019531 348.261719 C 593.859375 347.347656 593.671875 346.402344 593.460938 345.425781 C 593.246094 344.457031 593.007812 343.460938 592.746094 342.4375 C 592.613281 341.925781 592.46875 341.414062 592.332031 340.886719 C 591.894531 339.324219 591.390625 337.683594 590.8125 336 C 590.8125 336 590.8125 336 590.808594 335.992188 C 590.808594 335.992188 590.800781 335.976562 590.792969 335.964844 C 590.785156 335.9375 590.773438 335.898438 590.757812 335.855469 C 590.753906 335.777344 590.707031 335.675781 590.679688 335.523438 C 590.609375 335.351562 590.53125 335.109375 590.425781 334.835938 C 590.421875 334.832031 590.421875 334.820312 590.421875 334.816406 C 590.375 334.6875 590.328125 334.546875 590.273438 334.398438 C 589.464844 332 587.738281 327.238281 585.363281 322.445312 C 585.097656 321.875 584.804688 321.296875 584.503906 320.730469 C 584.355469 320.457031 584.207031 320.1875 584.050781 319.917969 C 583.878906 319.59375 583.699219 319.273438 583.519531 318.960938 C 583.300781 318.554688 583.058594 318.164062 582.820312 317.785156 C 582.667969 317.527344 582.507812 317.269531 582.351562 317.023438 C 582.097656 316.613281 581.84375 316.222656 581.589844 315.84375 L 581.582031 315.84375 C 579.636719 312.960938 577.453125 310.5625 575.128906 309.320312 L 570.171875 310.558594 C 564.816406 280.789062 565.539062 266.867188 567.363281 264.753906 C 571.78125 266.34375 584.160156 293.273438 595.621094 339.253906 C 607.082031 385.238281 608.785156 414.820312 605.625 418.300781 C 602.984375 417.285156 595.765625 405.183594 586.476562 376.101562 C 587.570312 376.125 588.835938 376.011719 590.289062 375.613281 Z M 574.085938 346.03125 L 566.707031 347.855469 L 566.695312 347.855469 L 562.304688 348.964844 L 562.300781 348.964844 L 517.828125 360.054688 L 517.617188 360.105469 L 514.359375 350.710938 L 514.578125 350.660156 L 559.96875 339.332031 L 559.972656 339.332031 L 564.367188 338.25 L 564.371094 338.25 L 571.277344 336.523438 L 571.277344 336.527344 C 571.398438 336.867188 571.519531 337.207031 571.640625 337.5625 C 571.753906 337.90625 571.878906 338.257812 571.992188 338.613281 C 571.992188 338.621094 571.992188 338.621094 571.992188 338.621094 C 572.105469 338.980469 572.226562 339.34375 572.335938 339.71875 C 572.449219 340.089844 572.558594 340.460938 572.667969 340.847656 C 572.808594 341.351562 572.941406 341.871094 573.078125 342.402344 C 573.078125 342.402344 573.15625 342.605469 573.28125 342.988281 L 573.28125 342.992188 C 573.304688 343.070312 573.328125 343.160156 573.363281 343.253906 C 573.363281 343.273438 573.367188 343.292969 573.378906 343.3125 C 573.382812 343.339844 573.394531 343.375 573.402344 343.398438 C 573.410156 343.417969 573.417969 343.429688 573.421875 343.449219 C 573.429688 343.488281 573.441406 343.527344 573.457031 343.5625 C 573.457031 343.566406 573.464844 343.578125 573.464844 343.582031 C 573.46875 343.605469 573.476562 343.640625 573.488281 343.671875 C 573.566406 343.957031 573.65625 344.296875 573.75 344.683594 L 573.96875 345.546875 L 574.007812 345.695312 Z M 459.371094 291.53125 L 482.300781 296.84375 L 488.25 302.621094 L 495.734375 311.453125 L 497.402344 321.433594 L 474.050781 320.253906 L 469.5 322.65625 L 453.128906 331.34375 L 452.371094 308.90625 L 448.671875 303.570312 Z M 420.207031 307.613281 L 444.386719 307.035156 L 446.332031 310.34375 L 447.972656 331.90625 L 428.394531 333.480469 L 422.746094 333.914062 L 416.898438 348.523438 L 418.453125 357.378906 L 418.773438 359.152344 L 420.601562 361.324219 L 424 365.390625 L 428.4375 370.703125 L 430.265625 372.875 L 442.238281 373.757812 L 442.125 376.207031 L 441.566406 388.566406 L 441.332031 393.445312 L 441.144531 397.648438 L 440.476562 412.484375 L 429.402344 420.925781 L 414.097656 420.925781 L 411.460938 415.167969 L 411.441406 405.039062 L 411.414062 400.886719 L 411.414062 396.078125 L 411.371094 383.847656 L 411.347656 374.949219 L 411.347656 368.527344 L 411.328125 363.628906 L 411.328125 359.148438 L 411.234375 327.949219 L 403.492188 319.535156 L 402.128906 318.0625 Z M 372.191406 324.765625 L 395.800781 319.539062 L 399.777344 323.613281 L 405.488281 329.476562 L 405.859375 358.945312 L 405.859375 360.519531 L 405.878906 365 L 405.902344 369.898438 L 405.921875 376.324219 L 405.949219 385.222656 L 405.992188 397.425781 L 406.015625 402.234375 L 406.035156 406.390625 L 406.0625 412.285156 L 401.878906 418.941406 L 400.605469 420.929688 L 381.996094 420.929688 L 375.613281 414.710938 L 375.613281 413.972656 L 375.660156 409.789062 L 375.703125 404.984375 L 375.84375 392.710938 L 375.929688 383.789062 L 375.957031 381.019531 L 374.289062 377.761719 L 372.050781 373.414062 L 370.019531 369.4375 L 365.996094 361.582031 L 366.015625 360.519531 L 366.292969 345.355469 L 355.960938 338.101562 L 352.027344 337.941406 Z M 315.765625 370.152344 L 324.433594 347.109375 L 336.613281 342.769531 L 326.859375 356.699219 L 341.03125 345.445312 L 351.664062 342.765625 L 360.355469 347.984375 L 362.15625 361.578125 L 363.128906 363.679688 L 366.203125 370.378906 L 368.046875 374.398438 L 370.0625 378.8125 L 372.183594 383.433594 L 372.183594 402.011719 L 367.890625 406.910156 L 362.5 413.058594 L 359.773438 416.179688 L 353.1875 415.394531 L 346.667969 414.613281 L 345.441406 412.507812 L 339.269531 401.808594 L 335.019531 394.433594 L 334.785156 394.019531 L 331.519531 388.402344 L 330.527344 386.671875 L 329.832031 383.921875 L 328.769531 379.71875 L 324.632812 363.378906 L 322.875 377.21875 L 322.652344 378.996094 L 314.621094 373.171875 Z M 245.617188 447.300781 C 245.617188 447.300781 246.679688 448.699219 244 449.621094 C 244 449.621094 243.074219 449.0625 241.640625 447.261719 C 238.875 443.773438 234.210938 435.589844 230.742188 417.683594 C 230.742188 417.683594 227.859375 409.027344 229.382812 397.738281 C 229.582031 396.238281 229.863281 394.691406 230.234375 393.113281 C 230.234375 393.113281 233.21875 393 233.390625 396.714844 C 233.390625 396.714844 233.390625 396.714844 233.386719 396.71875 C 233.386719 396.722656 233.386719 396.722656 233.386719 396.722656 C 233.230469 397.066406 230.183594 403.890625 233.226562 417.0625 C 236.222656 430.050781 239.175781 439.429688 244.90625 446.445312 C 245.136719 446.746094 245.375 447.027344 245.617188 447.300781 Z M 235.890625 446.28125 C 235.472656 445.820312 228.695312 437.941406 222.75 415.542969 L 221.464844 418.683594 C 221.464844 418.683594 219.496094 409.105469 220.691406 399.886719 C 220.882812 398.410156 221.152344 396.945312 221.53125 395.53125 C 221.53125 395.53125 222.757812 394.667969 225.601562 394.519531 C 225.601562 394.519531 225.335938 396.015625 225.195312 398.765625 C 224.800781 406.523438 225.417969 424.195312 235.890625 446.28125 Z M 219.09375 392.132812 C 217.625 394.324219 216.824219 397.476562 216.46875 400.9375 C 216.441406 401.160156 216.421875 401.390625 216.40625 401.617188 C 216.378906 401.875 216.347656 402.121094 216.339844 402.378906 C 216.3125 402.679688 216.292969 402.976562 216.273438 403.273438 C 216.257812 403.402344 216.253906 403.53125 216.25 403.664062 C 216.246094 403.839844 216.246094 404.011719 216.234375 404.183594 C 216.199219 404.941406 216.191406 405.703125 216.191406 406.460938 C 216.191406 406.972656 216.195312 407.492188 216.210938 408.003906 L 216.210938 408.023438 C 216.230469 408.800781 216.253906 409.5625 216.292969 410.316406 L 216.292969 410.339844 C 216.320312 410.835938 216.351562 411.332031 216.386719 411.816406 C 216.382812 411.820312 216.382812 411.835938 216.386719 411.839844 C 216.40625 412.164062 216.433594 412.476562 216.457031 412.785156 C 216.476562 413.109375 216.5 413.417969 216.535156 413.730469 C 216.542969 413.824219 216.550781 413.925781 216.5625 414.011719 C 216.605469 414.484375 216.648438 414.945312 216.695312 415.382812 C 216.695312 415.410156 216.699219 415.429688 216.699219 415.453125 C 216.699219 415.542969 216.71875 415.625 216.71875 415.730469 C 216.746094 415.921875 216.769531 416.105469 216.789062 416.292969 C 216.847656 416.75 216.898438 417.183594 216.945312 417.609375 C 216.972656 417.800781 216.992188 417.984375 217.015625 418.171875 C 217.054688 418.429688 217.085938 418.671875 217.121094 418.910156 C 217.222656 419.648438 217.316406 420.3125 217.40625 420.875 C 217.414062 420.894531 217.414062 420.917969 217.414062 420.9375 C 217.433594 421.097656 217.457031 421.246094 217.480469 421.394531 C 217.507812 421.550781 217.53125 421.714844 217.5625 421.84375 C 217.566406 421.875 217.574219 421.910156 217.582031 421.9375 C 217.703125 422.652344 217.777344 423.046875 217.777344 423.046875 C 219.960938 436.574219 224.210938 445.03125 228.136719 450.199219 C 228.21875 450.3125 228.308594 450.429688 228.398438 450.546875 C 228.402344 450.550781 228.402344 450.550781 228.414062 450.558594 C 232.871094 456.25 236.835938 457.789062 236.835938 457.789062 C 238.304688 457.460938 239.492188 456.964844 240.425781 456.421875 C 245.863281 486.457031 245.171875 500.53125 243.320312 502.675781 C 238.898438 501.078125 226.515625 474.15625 215.058594 428.175781 C 203.601562 382.191406 201.894531 352.609375 205.054688 349.125 C 207.65625 350.140625 214.828125 362.09375 224.058594 390.890625 Z M 310.394531 395.65625 L 313.296875 394.9375 L 317.042969 394.003906 L 326.160156 391.726562 L 327.085938 391.496094 L 329.421875 395.28125 L 332.125 400.441406 L 332.085938 400.445312 L 317.199219 404.164062 L 313.460938 405.097656 L 310.578125 405.8125 L 305.882812 406.980469 L 249.078125 421.136719 L 249.0625 421.140625 L 244.648438 422.21875 L 237.265625 424.074219 L 237.21875 423.90625 L 236.933594 422.734375 C 236.699219 421.808594 236.566406 421.132812 236.496094 420.746094 C 236.484375 420.667969 236.476562 420.609375 236.46875 420.554688 C 236.453125 420.445312 236.449219 420.394531 236.449219 420.394531 C 236.402344 420.207031 236.359375 420.023438 236.316406 419.835938 C 236.308594 419.792969 236.296875 419.742188 236.285156 419.691406 C 236.222656 419.40625 236.15625 419.113281 236.09375 418.828125 C 235.761719 417.273438 235.5 415.789062 235.296875 414.363281 L 235.296875 414.359375 L 242.207031 412.644531 L 242.222656 412.644531 L 246.613281 411.535156 L 246.617188 411.535156 L 305.699219 396.820312 Z M 243.261719 399.386719 L 243.277344 399.382812 L 305.433594 383.902344 L 310.140625 382.730469 L 313.109375 381.992188 L 316.097656 381.257812 L 321.496094 385.542969 L 319.109375 386.132812 L 316.9375 386.671875 L 313.1875 387.601562 L 310.238281 388.339844 L 305.566406 389.511719 L 244.761719 404.648438 L 244.746094 404.652344 L 240.367188 405.734375 L 240.347656 405.738281 L 234.757812 407.136719 C 234.742188 406.675781 234.75 406.226562 234.757812 405.792969 C 234.761719 405.617188 234.761719 405.449219 234.769531 405.289062 C 234.789062 404.789062 234.8125 404.296875 234.835938 403.832031 C 234.839844 403.621094 234.851562 403.40625 234.859375 403.203125 C 234.898438 402.582031 234.945312 401.992188 235.003906 401.453125 L 235.003906 401.449219 L 238.878906 400.46875 L 238.894531 400.46875 Z M 65.503906 443.660156 L 88.453125 437.945312 C 88.589844 438.679688 88.722656 439.398438 88.859375 440.128906 C 88.992188 440.84375 89.136719 441.5625 89.269531 442.273438 C 89.335938 442.621094 89.398438 442.96875 89.46875 443.3125 L 66.136719 449.59375 C 65.855469 448.46875 65.503906 445.945312 65.503906 443.660156 Z M 68.910156 466.007812 C 68.910156 466.007812 67.355469 461.289062 66.871094 456.308594 L 90.902344 450.328125 C 90.839844 450 90.769531 449.675781 90.695312 449.347656 C 90.765625 449.675781 90.839844 450 90.910156 450.328125 C 91.097656 451.195312 91.28125 452.042969 91.46875 452.886719 C 91.578125 453.371094 91.6875 453.859375 91.792969 454.335938 C 91.820312 454.445312 91.839844 454.546875 91.863281 454.65625 C 91.941406 454.996094 92.015625 455.328125 92.097656 455.65625 C 92.117188 455.746094 92.136719 455.828125 92.160156 455.917969 C 92.207031 456.128906 92.253906 456.34375 92.300781 456.546875 C 92.367188 456.847656 92.441406 457.144531 92.511719 457.429688 C 92.578125 457.71875 92.644531 458.011719 92.714844 458.296875 C 92.847656 458.867188 92.992188 459.425781 93.125 459.980469 Z M 76.40625 483.632812 C 75.234375 482.710938 73.84375 479.78125 73.574219 478.839844 L 96.667969 473.085938 C 96.773438 473.433594 96.867188 473.773438 96.976562 474.121094 C 97.058594 474.410156 97.144531 474.699219 97.234375 474.992188 C 97.421875 475.625 97.609375 476.261719 97.8125 476.910156 C 97.8125 476.910156 97.8125 476.917969 97.816406 476.925781 C 97.941406 477.351562 98.074219 477.777344 98.203125 478.207031 Z M 125.71875 523.03125 C 122.453125 523.847656 113.160156 510.128906 103.953125 481.550781 C 101.816406 474.941406 99.6875 467.539062 97.644531 459.316406 L 97.203125 457.535156 C 94.886719 448.070312 93.179688 439.527344 91.96875 431.945312 C 87.699219 405.394531 89.457031 390.679688 92.546875 389.914062 L 104.734375 386.875 C 105.183594 390.554688 105.695312 394.332031 106.277344 398.179688 C 106.515625 399.757812 106.757812 401.355469 107.011719 402.957031 C 107.140625 403.738281 107.269531 404.535156 107.398438 405.320312 C 107.441406 405.617188 107.492188 405.910156 107.546875 406.207031 C 107.71875 407.289062 107.90625 408.375 108.089844 409.460938 C 108.089844 409.480469 108.089844 409.503906 108.09375 409.523438 C 108.425781 411.441406 108.773438 413.371094 109.128906 415.320312 C 109.308594 416.300781 109.496094 417.289062 109.683594 418.273438 C 109.832031 419.035156 109.96875 419.796875 110.125 420.5625 C 110.324219 421.640625 110.539062 422.726562 110.757812 423.808594 C 110.824219 424.183594 110.90625 424.566406 110.980469 424.941406 C 111.128906 425.664062 111.265625 426.386719 111.414062 427.109375 C 111.628906 428.152344 111.84375 429.207031 112.066406 430.253906 C 112.066406 430.257812 112.066406 430.269531 112.074219 430.277344 C 112.378906 431.746094 112.703125 433.222656 113.023438 434.695312 C 113.984375 439.128906 115.011719 443.582031 116.097656 448.0625 C 116.457031 449.554688 116.816406 451.050781 117.195312 452.550781 C 117.390625 453.351562 117.589844 454.152344 117.804688 454.953125 C 118.003906 455.75 118.207031 456.550781 118.410156 457.34375 C 118.71875 458.535156 119.023438 459.726562 119.34375 460.914062 C 120.277344 464.480469 121.242188 467.996094 122.226562 471.476562 C 122.714844 473.207031 123.207031 474.917969 123.707031 476.625 C 123.988281 477.597656 124.273438 478.574219 124.566406 479.542969 C 125.347656 482.199219 126.152344 484.820312 126.957031 487.402344 C 127.191406 488.125 127.414062 488.851562 127.644531 489.570312 C 128.105469 491.039062 128.574219 492.492188 129.054688 493.9375 C 129.273438 494.609375 129.492188 495.277344 129.71875 495.945312 C 130.125 497.164062 130.523438 498.367188 130.9375 499.5625 C 131.148438 500.175781 131.351562 500.792969 131.5625 501.402344 C 131.914062 502.425781 132.277344 503.445312 132.632812 504.460938 C 132.914062 505.261719 133.195312 506.058594 133.480469 506.84375 C 133.800781 507.738281 134.128906 508.636719 134.449219 509.519531 C 134.933594 510.847656 135.425781 512.15625 135.910156 513.453125 C 135.910156 513.453125 135.910156 513.453125 135.910156 513.457031 C 136.402344 514.753906 136.886719 516.035156 137.382812 517.308594 C 137.714844 518.171875 138.050781 519.023438 138.386719 519.878906 Z M 173.433594 565.46875 C 168.160156 566.785156 156.890625 553.414062 143.589844 520.589844 C 143.089844 519.355469 142.589844 518.101562 142.089844 516.84375 C 141.574219 515.539062 141.070312 514.226562 140.558594 512.894531 C 140.390625 512.464844 140.230469 512.035156 140.066406 511.597656 C 139.742188 510.746094 139.421875 509.890625 139.109375 509.027344 C 138.90625 508.488281 138.703125 507.949219 138.511719 507.402344 C 137.921875 505.777344 137.332031 504.117188 136.738281 502.453125 C 136.398438 501.476562 136.050781 500.496094 135.714844 499.507812 C 130.625 484.691406 125.835938 468.421875 121.609375 451.457031 C 120.980469 448.949219 120.371094 446.441406 119.789062 443.945312 C 119.535156 442.894531 119.292969 441.847656 119.054688 440.804688 C 118.96875 440.480469 118.894531 440.148438 118.820312 439.816406 C 118.695312 439.257812 118.566406 438.707031 118.441406 438.148438 C 118.316406 437.589844 118.1875 437.03125 118.070312 436.480469 C 117.992188 436.148438 117.917969 435.820312 117.847656 435.488281 C 117.824219 435.398438 117.804688 435.3125 117.789062 435.230469 C 117.421875 433.59375 117.070312 431.957031 116.722656 430.316406 C 116.570312 429.605469 116.417969 428.886719 116.269531 428.175781 C 116.253906 428.097656 116.234375 428.023438 116.222656 427.945312 C 115.972656 426.726562 115.71875 425.515625 115.472656 424.304688 C 115.21875 423.089844 114.988281 421.878906 114.753906 420.683594 C 112.242188 407.769531 110.277344 395.308594 108.957031 383.773438 C 104.664062 346.09375 108.328125 327.832031 113.863281 326.457031 L 148.625 317.800781 C 140.070312 336.308594 146.765625 391.34375 159.402344 442.035156 C 172.035156 492.730469 191.953125 544.472656 208.195312 556.808594 Z M 215.660156 554.953125 L 215.644531 554.953125 L 215.578125 554.972656 C 205.097656 557.304688 181.320312 511.179688 163.8125 440.9375 C 146.265625 370.511719 145.660156 318.539062 156.097656 315.945312 L 185.011719 308.746094 C 184.757812 309.285156 184.53125 309.847656 184.304688 310.453125 C 184.222656 310.652344 184.15625 310.847656 184.085938 311.0625 C 183.507812 312.714844 183.027344 314.582031 182.621094 316.640625 C 182.578125 316.882812 182.53125 317.136719 182.488281 317.394531 C 182.378906 317.976562 182.285156 318.574219 182.191406 319.1875 C 182.160156 319.40625 182.121094 319.628906 182.097656 319.855469 C 181.9375 320.976562 181.800781 322.132812 181.6875 323.328125 C 181.640625 323.78125 181.601562 324.234375 181.5625 324.695312 C 181.496094 325.511719 181.433594 326.34375 181.386719 327.191406 C 181.375 327.46875 181.359375 327.742188 181.34375 328.023438 C 181.324219 328.351562 181.308594 328.675781 181.300781 329.011719 C 181.285156 329.339844 181.273438 329.660156 181.261719 329.992188 C 181.21875 331.007812 181.195312 332.050781 181.179688 333.113281 C 181.175781 333.464844 181.175781 333.820312 181.175781 334.171875 C 181.003906 359.894531 186.9375 397.5 195.777344 432.984375 C 197.8125 441.152344 200.039062 449.347656 202.410156 457.402344 C 202.667969 458.292969 202.929688 459.175781 203.195312 460.066406 C 203.195312 460.074219 203.199219 460.085938 203.199219 460.09375 C 203.734375 461.867188 204.269531 463.640625 204.820312 465.394531 C 205.90625 468.921875 207.027344 472.414062 208.167969 475.851562 C 208.449219 476.714844 208.738281 477.566406 209.03125 478.414062 C 209.597656 480.121094 210.183594 481.808594 210.765625 483.480469 C 211.054688 484.316406 211.351562 485.148438 211.648438 485.972656 C 211.667969 486.039062 211.6875 486.101562 211.710938 486.160156 C 211.988281 486.933594 212.257812 487.695312 212.535156 488.453125 C 213.160156 490.1875 213.796875 491.914062 214.4375 493.613281 C 214.699219 494.308594 214.964844 495.003906 215.226562 495.695312 C 215.527344 496.480469 215.828125 497.265625 216.136719 498.050781 C 216.4375 498.824219 216.746094 499.601562 217.046875 500.371094 C 217.367188 501.175781 217.695312 501.988281 218.015625 502.789062 C 218.554688 504.109375 219.09375 505.410156 219.625 506.6875 C 219.757812 507.007812 219.890625 507.328125 220.03125 507.640625 C 220.835938 509.550781 221.652344 511.414062 222.46875 513.230469 C 222.507812 513.324219 222.554688 513.429688 222.601562 513.527344 C 223.839844 516.292969 225.09375 518.945312 226.347656 521.46875 C 226.503906 521.789062 226.660156 522.09375 226.820312 522.410156 C 226.972656 522.730469 227.125 523.035156 227.289062 523.34375 C 227.441406 523.648438 227.605469 523.949219 227.757812 524.257812 C 227.765625 524.277344 227.777344 524.296875 227.785156 524.316406 C 228.066406 524.839844 228.332031 525.371094 228.605469 525.878906 C 228.640625 525.9375 228.664062 525.988281 228.695312 526.046875 C 228.851562 526.34375 229.007812 526.636719 229.167969 526.929688 C 229.324219 527.214844 229.476562 527.507812 229.640625 527.792969 C 229.792969 528.082031 229.945312 528.363281 230.109375 528.644531 C 230.417969 529.207031 230.734375 529.757812 231.046875 530.308594 C 231.046875 530.320312 231.050781 530.332031 231.066406 530.347656 C 231.34375 530.820312 231.609375 531.292969 231.882812 531.75 C 232.222656 532.335938 232.570312 532.902344 232.914062 533.464844 C 233.050781 533.679688 233.179688 533.898438 233.3125 534.109375 C 233.800781 534.894531 234.285156 535.65625 234.777344 536.390625 C 234.929688 536.625 235.082031 536.851562 235.234375 537.085938 C 235.390625 537.316406 235.542969 537.539062 235.695312 537.761719 C 235.910156 538.078125 236.121094 538.375 236.339844 538.675781 C 236.5625 539 236.78125 539.304688 237.007812 539.605469 C 237.585938 540.394531 238.160156 541.144531 238.738281 541.859375 C 238.875 542.027344 239 542.183594 239.136719 542.347656 C 239.359375 542.625 239.585938 542.886719 239.8125 543.148438 C 239.945312 543.308594 240.089844 543.46875 240.222656 543.625 C 240.25 543.652344 240.285156 543.691406 240.316406 543.734375 C 240.582031 544.027344 240.84375 544.3125 241.101562 544.582031 C 241.363281 544.859375 241.621094 545.128906 241.882812 545.382812 C 242.085938 545.585938 242.292969 545.789062 242.496094 545.984375 C 242.792969 546.265625 243.085938 546.53125 243.382812 546.785156 C 243.53125 546.910156 243.667969 547.027344 243.8125 547.152344 C 244.070312 547.363281 244.316406 547.566406 244.574219 547.757812 Z M 252.035156 545.894531 C 241.601562 548.492188 217.742188 502.308594 200.1875 431.882812 C 182.640625 361.453125 182.035156 309.484375 192.472656 306.886719 C 201.609375 304.609375 221.023438 339.703125 237.492188 395.707031 L 235.914062 396.097656 C 235.953125 395.96875 235.976562 395.894531 235.976562 395.894531 C 234.824219 389.589844 230.113281 390.171875 228.710938 390.480469 C 221.625 368.195312 211.722656 342.726562 203.949219 344.660156 C 190.5625 347.992188 209.832031 425.960938 210.65625 429.277344 C 211.484375 432.59375 231.058594 510.480469 244.445312 507.144531 C 252.421875 505.164062 248.902344 476.84375 244.414062 452.949219 C 249.324219 450.21875 247.710938 446.078125 247.710938 446.078125 C 247.640625 445.972656 247.578125 445.898438 247.507812 445.800781 L 247.511719 445.800781 L 249.886719 445.21875 C 261.863281 503 261.230469 543.597656 252.035156 545.894531 Z M 468.183594 498.949219 L 468.164062 499.816406 L 467.773438 515.5625 L 405.484375 519.671875 L 469.261719 525.660156 L 473.144531 547.988281 L 482.59375 649.820312 L 482.761719 651.613281 C 440.023438 662.765625 397.496094 661.8125 355.199219 648.925781 L 358.910156 532.988281 L 399.929688 526.972656 L 355.707031 522.8125 L 335.871094 481.734375 L 318.761719 444.753906 L 318 428.320312 L 343.363281 422.011719 L 343.984375 423.210938 L 363.730469 424.902344 L 368.628906 419.859375 L 374.386719 426.210938 L 391.472656 427.710938 L 398.894531 434.578125 L 402.152344 460.53125 L 438.234375 499.054688 L 410.839844 458.429688 L 411.691406 430.027344 L 431.183594 430.507812 L 476.84375 396.03125 L 477.648438 388.5625 L 478.085938 384.382812 L 478.179688 384.238281 L 478.199219 384.238281 L 482.917969 378.257812 L 482.9375 378.257812 L 494.707031 363.378906 L 469.898438 375.304688 L 457.488281 372.367188 L 457.464844 372.367188 L 439.136719 368.042969 L 432.382812 366.445312 L 430.117188 363.851562 L 426.601562 359.8125 L 426.582031 359.8125 L 425.519531 358.585938 L 424.777344 355.785156 L 423.300781 350.0625 L 427.292969 340.375 L 452.980469 337.695312 L 474.507812 327.089844 L 493.527344 328.195312 L 500.996094 336.792969 L 504.207031 340.488281 L 504.765625 341.136719 L 505.734375 345.019531 L 507.257812 351.074219 L 509.335938 359.46875 L 509.59375 360.441406 L 510.21875 362.933594 L 512.765625 370.839844 L 514.195312 375.273438 L 515.449219 379.132812 L 515.539062 379.457031 L 523.03125 407.257812 Z M 445.726562 402.015625 L 445.726562 383.738281 L 449.242188 377.222656 L 468.261719 381.910156 L 468.285156 381.910156 L 468.445312 381.957031 L 468.445312 390.808594 L 468.402344 390.851562 L 458.390625 402.015625 Z M 567.226562 367.25 L 567.195312 367.25 L 524.035156 377.992188 L 523.800781 378.050781 L 522.054688 373 L 522.273438 372.949219 L 565.734375 362.097656 L 565.757812 362.09375 L 570.15625 361.015625 L 575.867188 359.585938 L 575.867188 359.589844 C 575.871094 359.632812 575.871094 359.679688 575.871094 359.71875 L 575.871094 359.785156 C 575.871094 359.8125 575.878906 359.847656 575.878906 359.871094 L 575.878906 359.949219 C 575.882812 360.152344 575.894531 360.359375 575.882812 360.574219 C 575.898438 361.261719 575.886719 361.957031 575.867188 362.65625 C 575.867188 362.855469 575.867188 363.050781 575.863281 363.257812 C 575.859375 363.566406 575.84375 363.875 575.832031 364.183594 C 575.8125 364.492188 575.792969 364.808594 575.769531 365.121094 L 571.585938 366.152344 Z M 618.226562 460.53125 C 609.035156 462.828125 589.421875 427.257812 572.878906 370.605469 L 575.238281 370.035156 C 575.222656 370.152344 575.199219 370.25 575.191406 370.363281 C 575.191406 370.363281 575.714844 374.796875 581.34375 374.875 C 588.601562 398.085938 598.773438 424.742188 606.75 422.765625 C 620.136719 419.425781 600.867188 341.460938 600.039062 338.144531 C 599.214844 334.832031 579.644531 256.945312 566.253906 260.277344 C 558.484375 262.207031 561.6875 289.355469 565.890625 312.359375 C 564.519531 312.722656 560.046875 314.410156 561.996094 320.539062 C 561.996094 320.539062 562.046875 320.589844 562.140625 320.683594 L 560.582031 321.078125 C 548.84375 263.898438 549.523438 223.800781 558.65625 221.53125 C 569.09375 218.933594 592.949219 265.117188 610.507812 335.542969 C 628.050781 405.964844 628.65625 457.941406 618.226562 460.53125 Z M 625.6875 458.679688 C 625.707031 458.632812 625.726562 458.59375 625.746094 458.550781 C 625.8125 458.414062 625.871094 458.273438 625.933594 458.125 C 626.09375 457.753906 626.246094 457.367188 626.394531 456.972656 C 626.472656 456.773438 626.542969 456.566406 626.613281 456.363281 C 627.191406 454.710938 627.671875 452.839844 628.074219 450.78125 C 628.117188 450.53125 628.160156 450.28125 628.207031 450.03125 C 628.316406 449.445312 628.410156 448.847656 628.503906 448.234375 C 628.539062 448.015625 628.574219 447.792969 628.597656 447.566406 C 628.753906 446.449219 628.894531 445.296875 629.007812 444.09375 C 629.046875 443.660156 629.09375 443.214844 629.121094 442.769531 C 629.214844 441.679688 629.289062 440.554688 629.34375 439.394531 C 629.363281 439.070312 629.375 438.734375 629.386719 438.402344 C 629.402344 438.078125 629.414062 437.753906 629.429688 437.425781 C 629.46875 436.40625 629.492188 435.367188 629.507812 434.304688 C 629.511719 433.953125 629.511719 433.597656 629.511719 433.246094 C 629.6875 407.523438 623.753906 369.917969 614.910156 334.433594 C 612.875 326.269531 610.648438 318.070312 608.277344 310.019531 C 608.023438 309.128906 607.757812 308.242188 607.492188 307.351562 C 607.492188 307.347656 607.492188 307.332031 607.488281 307.328125 C 606.953125 305.550781 606.417969 303.78125 605.871094 302.023438 C 604.78125 298.496094 603.664062 295.003906 602.519531 291.566406 C 602.238281 290.707031 601.949219 289.855469 601.660156 289.003906 C 601.089844 287.296875 600.511719 285.609375 599.921875 283.9375 C 599.632812 283.105469 599.335938 282.269531 599.039062 281.445312 C 599.019531 281.382812 599 281.316406 598.976562 281.257812 C 598.699219 280.484375 598.433594 279.722656 598.15625 278.96875 C 597.527344 277.230469 596.894531 275.503906 596.25 273.808594 C 595.988281 273.109375 595.726562 272.417969 595.464844 271.726562 C 594.011719 267.929688 592.542969 264.261719 591.0625 260.734375 C 590.929688 260.410156 590.796875 260.089844 590.660156 259.777344 C 590.390625 259.136719 590.117188 258.507812 589.851562 257.878906 C 589.597656 257.296875 589.347656 256.714844 589.09375 256.148438 C 587.453125 252.402344 585.800781 248.855469 584.136719 245.53125 C 583.894531 245.046875 583.652344 244.558594 583.414062 244.082031 C 583.246094 243.753906 583.082031 243.433594 582.914062 243.109375 C 582.636719 242.582031 582.371094 242.0625 582.09375 241.542969 C 578.679688 235.097656 575.277344 229.671875 571.964844 225.566406 C 571.828125 225.398438 571.703125 225.238281 571.566406 225.078125 C 570.585938 223.882812 569.613281 222.8125 568.648438 221.871094 C 568.5 221.722656 568.351562 221.585938 568.199219 221.441406 C 567.628906 220.902344 567.066406 220.40625 566.5 219.960938 C 566.375 219.859375 566.25 219.765625 566.125 219.664062 L 595.039062 212.460938 L 595.050781 212.460938 L 595.121094 212.441406 C 605.601562 210.109375 629.378906 256.238281 646.886719 326.476562 C 664.433594 396.902344 665.035156 448.875 654.601562 451.46875 Z M 696.828125 440.957031 L 662.066406 449.617188 C 670.621094 431.105469 663.929688 376.070312 651.292969 325.378906 C 638.660156 274.683594 618.746094 222.941406 602.503906 210.609375 L 637.265625 201.949219 C 642.71875 200.589844 654.253906 214.550781 667.886719 248.699219 L 668.511719 250.269531 C 668.8125 251.042969 669.113281 251.808594 669.40625 252.589844 C 669.707031 253.367188 670.007812 254.148438 670.304688 254.933594 C 670.875 256.449219 671.449219 257.972656 672.011719 259.519531 C 673.398438 263.316406 674.765625 267.222656 676.105469 271.21875 C 676.554688 272.554688 677 273.894531 677.441406 275.25 C 678.105469 277.285156 678.761719 279.339844 679.410156 281.40625 C 679.628906 282.097656 679.847656 282.789062 680.058594 283.484375 C 680.488281 284.875 680.921875 286.273438 681.335938 287.683594 C 681.652344 288.707031 681.960938 289.742188 682.261719 290.773438 C 683.425781 294.699219 684.550781 298.683594 685.644531 302.722656 C 685.78125 303.195312 685.910156 303.675781 686.035156 304.15625 C 686.324219 305.222656 686.617188 306.296875 686.898438 307.375 C 687.199219 308.503906 687.496094 309.640625 687.789062 310.773438 C 688.230469 312.5 688.675781 314.222656 689.105469 315.964844 C 689.511719 317.585938 689.90625 319.203125 690.292969 320.8125 C 690.558594 321.933594 690.832031 323.0625 691.09375 324.175781 C 691.164062 324.480469 691.242188 324.785156 691.308594 325.085938 C 691.542969 326.101562 691.777344 327.105469 692.003906 328.113281 C 692.476562 330.132812 692.921875 332.140625 693.351562 334.136719 C 694.433594 339.132812 695.449219 344.078125 696.367188 348.933594 C 696.507812 349.652344 696.644531 350.367188 696.78125 351.085938 C 696.914062 351.804688 697.046875 352.519531 697.175781 353.234375 C 697.585938 355.46875 697.976562 357.679688 698.347656 359.882812 C 698.351562 359.910156 698.363281 359.945312 698.363281 359.976562 C 698.617188 361.433594 698.851562 362.882812 699.082031 364.324219 C 699.269531 365.496094 699.453125 366.664062 699.625 367.824219 C 699.734375 368.511719 699.835938 369.195312 699.933594 369.882812 C 700.195312 371.660156 700.445312 373.414062 700.675781 375.160156 C 700.761719 375.824219 700.851562 376.476562 700.9375 377.128906 C 701.390625 380.601562 701.789062 384.011719 702.128906 387.324219 L 702.164062 387.609375 C 705.761719 422.65625 702.089844 439.652344 696.828125 440.957031 Z M 719.046875 381.109375 L 706.375 384.261719 C 706.324219 383.785156 706.265625 383.292969 706.207031 382.808594 C 706.113281 381.957031 706.007812 381.097656 705.90625 380.238281 C 705.695312 378.503906 705.472656 376.765625 705.238281 375 C 705.121094 374.113281 705 373.226562 704.871094 372.335938 C 704.765625 371.621094 704.664062 370.90625 704.5625 370.191406 C 704.152344 367.316406 703.699219 364.402344 703.203125 361.4375 C 702.707031 358.410156 702.167969 355.351562 701.605469 352.242188 C 701.363281 350.90625 701.109375 349.570312 700.851562 348.222656 C 700.828125 348.113281 700.808594 348.003906 700.789062 347.894531 C 700.511719 346.449219 700.222656 345.011719 699.9375 343.558594 C 699.476562 341.195312 698.980469 338.8125 698.472656 336.417969 C 697.382812 331.265625 696.199219 326.046875 694.9375 320.785156 C 694.726562 319.890625 694.507812 318.996094 694.289062 318.101562 C 694.027344 317.023438 693.765625 315.945312 693.496094 314.871094 C 692.871094 312.363281 692.230469 309.871094 691.585938 307.386719 C 691.394531 306.6875 691.21875 305.984375 691.035156 305.292969 C 690.695312 304.03125 690.363281 302.765625 690.019531 301.519531 C 689.789062 300.671875 689.550781 299.832031 689.324219 298.992188 C 688.457031 295.855469 687.566406 292.753906 686.660156 289.675781 C 686.40625 288.816406 686.15625 287.960938 685.898438 287.105469 C 685.640625 286.253906 685.382812 285.398438 685.125 284.546875 C 684.882812 283.742188 684.632812 282.929688 684.390625 282.128906 C 682.8125 277.03125 681.199219 272.046875 679.535156 267.207031 C 679.269531 266.410156 678.992188 265.609375 678.714844 264.824219 C 678.308594 263.65625 677.90625 262.5 677.496094 261.351562 C 677.316406 260.855469 677.144531 260.363281 676.960938 259.878906 C 676.5 258.585938 676.03125 257.304688 675.5625 256.042969 C 675.503906 255.867188 675.4375 255.691406 675.367188 255.519531 C 674.808594 254 674.238281 252.5 673.675781 251.023438 L 685.863281 247.984375 C 688.945312 247.214844 697.414062 259.386719 706.097656 284.839844 C 708.746094 292.5625 711.398438 301.496094 713.933594 311.679688 C 715.980469 319.902344 717.578125 327.433594 718.789062 334.265625 C 724.078125 363.824219 722.308594 380.296875 719.046875 381.109375 Z M 744.109375 323.1875 L 722.3125 328.617188 C 721.964844 326.835938 721.625 325.089844 721.269531 323.378906 L 744.363281 317.625 C 744.570312 318.574219 744.714844 321.824219 744.109375 323.1875 Z M 744.109375 323.1875 " fill-opacity="1" fill-rule="nonzero"/></g><path fill="#ffffff" d="M 613.902344 214.640625 C 626.597656 229.339844 646.035156 278.859375 646.035156 278.859375 C 641.847656 259.023438 633.054688 234.316406 633.054688 234.316406 C 638.0625 241.03125 650.429688 276.53125 650.816406 277.640625 C 647.941406 264.613281 638.945312 232.664062 638.945312 232.664062 C 642.953125 239.441406 655.382812 275.28125 655.773438 276.40625 C 652.414062 260.683594 642.625 231.179688 642.625 231.179688 C 646.511719 236.230469 660.652344 274.089844 660.652344 274.089844 C 656.683594 254.386719 646.074219 229.949219 646.074219 229.949219 C 654.257812 240.886719 668 273.382812 668 273.382812 C 657.757812 232.304688 638.117188 208.605469 638.117188 208.605469 Z M 613.902344 214.640625 " fill-opacity="1" fill-rule="nonzero"/><path fill="#ffffff" d="M 598.765625 218.410156 L 574.546875 224.445312 C 587.242188 239.144531 606.679688 288.65625 606.679688 288.65625 C 602.496094 268.824219 593.703125 244.121094 593.703125 244.121094 C 598.710938 250.835938 611.074219 286.328125 611.460938 287.441406 C 608.585938 274.421875 599.59375 242.46875 599.59375 242.46875 C 603.597656 249.246094 616.027344 285.085938 616.417969 286.207031 C 613.058594 270.488281 603.273438 240.984375 603.273438 240.984375 C 607.167969 246.035156 621.296875 283.894531 621.296875 283.894531 C 617.328125 264.191406 606.722656 239.75 606.722656 239.75 C 614.90625 250.6875 628.648438 283.1875 628.648438 283.1875 C 618.402344 242.105469 598.765625 218.410156 598.765625 218.410156 Z M 598.765625 218.410156 " fill-opacity="1" fill-rule="nonzero"/><path fill="#ffffff" d="M 652.171875 373.054688 C 652.171875 373.054688 655.285156 408.195312 653.191406 421.691406 C 653.191406 421.691406 651.085938 395.160156 645.351562 375.898438 C 645.496094 377 650.617188 416.027344 649.558594 422.21875 C 649.558594 422.21875 644.359375 391.539062 639.945312 376.085938 C 639.945312 376.085938 645.980469 414.648438 645.621094 422.636719 C 645.621094 422.636719 638.5625 390.203125 634.992188 377.347656 C 635.148438 378.390625 640.910156 415.636719 639.640625 423.9375 C 639.640625 423.9375 635.808594 397.996094 630.199219 378.515625 C 630.199219 378.515625 636.273438 431.351562 631.960938 450.292969 L 656.179688 444.257812 C 656.183594 444.269531 662.402344 414.132812 652.171875 373.054688 Z M 652.171875 373.054688 " fill-opacity="1" fill-rule="nonzero"/><path fill="#ffffff" d="M 693.300781 411.703125 C 693.300781 411.703125 691.199219 385.175781 685.464844 365.910156 C 685.605469 367.015625 690.726562 406.035156 689.667969 412.234375 C 689.667969 412.234375 684.46875 381.554688 680.054688 366.097656 C 680.054688 366.097656 686.089844 404.660156 685.730469 412.648438 C 685.730469 412.648438 678.675781 380.21875 675.101562 367.359375 C 675.257812 368.40625 681.019531 405.648438 679.753906 413.949219 C 679.753906 413.949219 675.917969 388.007812 670.3125 368.527344 C 670.3125 368.527344 676.382812 421.363281 672.074219 440.304688 L 696.289062 434.269531 C 696.289062 434.269531 702.511719 404.136719 692.277344 363.050781 C 692.28125 363.0625 695.390625 398.207031 693.300781 411.703125 Z M 693.300781 411.703125 " fill-opacity="1" fill-rule="nonzero"/><path fill="#ffffff" d="M 688.296875 254.03125 L 678.554688 256.460938 C 683.5625 265.398438 694.257812 298.609375 694.585938 299.640625 C 693.332031 288.667969 689.082031 273.71875 688.953125 273.253906 C 693.515625 278.714844 699.371094 298.476562 699.371094 298.476562 C 697.171875 282.980469 693.09375 273.015625 692.941406 272.628906 C 698.117188 279.8125 704.335938 297.238281 704.335938 297.238281 C 699.265625 270.859375 688.296875 254.03125 688.296875 254.03125 Z M 688.296875 254.03125 " fill-opacity="1" fill-rule="nonzero"/><path fill="#ffffff" d="M 712.597656 356.058594 C 712.597656 356.058594 711.585938 345.214844 706.152344 330.207031 C 706.152344 330.207031 710.25 350.433594 708.789062 357.382812 C 708.789062 357.382812 705.488281 341.863281 701.375 331.421875 C 701.566406 332.476562 707.714844 366.832031 707.488281 377.082031 L 717.230469 374.652344 C 717.230469 374.652344 719.023438 354.648438 711.113281 328.96875 C 711.109375 328.96875 713.796875 347.292969 712.597656 356.058594 Z M 712.597656 356.058594 " fill-opacity="1" fill-rule="nonzero"/></svg>