<svg width="381" height="249" viewBox="0 0 381 249" fill="none" xmlns="http://www.w3.org/2000/svg">
<path d="M69.0402 155.979L0 155.979L4.71761e-08 183.476L26.9688 183.476L1.14864e-07 222.928L1.57937e-07 248.033L69.0402 248.033L69.0402 218.146L35.5989 218.146L69.0402 175.108L69.0402 155.979Z" fill="#4DB1FF"/>
<path fill-rule="evenodd" clip-rule="evenodd" d="M98.1137 130.409C124.056 130.409 145.086 109.802 145.086 84.3825C145.086 58.9626 124.056 38.3557 98.1137 38.3557C72.1715 38.3557 51.1411 58.9626 51.1411 84.3825C51.1411 109.802 72.1715 130.409 98.1137 130.409ZM98.1137 101.478C107.749 101.478 115.561 93.8241 115.561 84.3824C115.561 74.9407 107.749 67.2867 98.1137 67.2867C88.478 67.2867 80.6668 74.9407 80.6668 84.3824C80.6668 93.8241 88.478 101.478 98.1137 101.478Z" fill="white"/>
<path fill-rule="evenodd" clip-rule="evenodd" d="M122.738 248.033C148.158 248.033 168.765 227.426 168.765 202.006C168.765 176.586 148.158 155.979 122.738 155.979C97.3182 155.979 76.7113 176.586 76.7113 202.006C76.7113 227.426 97.3182 248.033 122.738 248.033ZM122.738 219.102C132.18 219.102 139.834 211.448 139.834 202.006C139.834 192.564 132.18 184.91 122.738 184.91C113.296 184.91 105.642 192.564 105.642 202.006C105.642 211.448 113.296 219.102 122.738 219.102Z" fill="white"/>
<path fill-rule="evenodd" clip-rule="evenodd" d="M222.463 248.033C247.883 248.033 268.49 227.426 268.49 202.006C268.49 176.586 247.883 155.979 222.463 155.979C197.044 155.979 176.437 176.586 176.437 202.006C176.437 227.426 197.044 248.033 222.463 248.033ZM222.463 219.102C231.905 219.102 239.559 211.448 239.559 202.006C239.559 192.564 231.905 184.91 222.463 184.91C213.022 184.91 205.368 192.564 205.368 202.006C205.368 211.448 213.022 219.102 222.463 219.102Z" fill="white"/>
<path d="M224.022 126.087L224.022 95.3465C224.022 94.9935 223.67 94.7467 223.338 94.8679C218.93 96.4788 194.492 104.679 188.223 90.9578C185.382 84.7401 184.894 82.6012 188.223 76.4922C193.999 65.8945 219.217 70.6016 223.425 71.47C223.739 71.5348 224.022 71.2921 224.022 70.9714L224.022 42.6784C224.022 42.4533 223.872 42.2563 223.654 42.1995C220.04 41.2561 190.695 33.9841 175.011 42.2973C144.895 58.2607 144.895 110.504 175.011 126.468C190.695 134.781 220.04 127.509 223.654 126.566C223.872 126.509 224.022 126.312 224.022 126.087Z" fill="white"/>
<path fill-rule="evenodd" clip-rule="evenodd" d="M277.7 127.477C300.802 125.257 317.616 103.546 315.256 78.9831C312.896 54.4204 292.255 36.3077 269.154 38.5273C246.052 40.747 229.238 62.4584 231.598 87.0212C233.958 111.584 254.599 129.697 277.7 127.477ZM275.014 99.5216C283.595 98.6972 289.84 90.6329 288.963 81.5096C288.087 72.3863 280.42 65.6587 271.84 66.4832C263.259 67.3076 257.014 75.3719 257.89 84.4952C258.767 93.6185 266.434 100.346 275.014 99.5216Z" fill="#4DB1FF"/>
<path d="M325.328 127.724L313.952 71.4832C313.864 71.0476 313.293 70.9349 313.046 71.3042L275.324 127.65L325.328 127.724Z" fill="#4DB1FF"/>
<path d="M381 127.852L340.087 127.852L340.087 0L381 -7.01944e-08L381 63.2804L381 127.852Z" fill="white"/>
<path d="M40.9127 127.852L2.19358e-07 127.852L0 0L40.9127 -7.01944e-08L40.9127 63.2804L40.9127 127.852Z" fill="white"/>
<path d="M305.945 196.627L305.945 248.033L276.161 248.033L276.161 155.979L309.519 155.979L329.772 178.694L348.834 155.979L381 155.979L381 248.033L353.599 248.033L353.599 196.627L329.772 221.732L305.945 196.627Z" fill="white"/>
</svg>
