<svg width="154" height="50" viewBox="0 0 154 50" fill="none" xmlns="http://www.w3.org/2000/svg">
<g clip-path="url(#clip0_247_294)">
<path d="M1.35963 46.2184V33.9954H5.77087C6.72967 33.9954 7.52532 34.1585 8.15779 34.4848C8.79429 34.811 9.26969 35.2626 9.5839 35.8396C9.89812 36.4125 10.0553 37.075 10.0553 37.827C10.0553 38.575 9.89612 39.2335 9.57786 39.8025C9.26365 40.3675 8.78825 40.8072 8.15175 41.1215C7.51928 41.4358 6.72363 41.593 5.76483 41.593H2.42317V40.0054H5.59564C6.19995 40.0054 6.69143 39.9199 7.07009 39.7488C7.45279 39.5777 7.7328 39.329 7.91007 39.0028C8.0873 38.6765 8.17595 38.2846 8.17595 37.827C8.17595 37.3654 8.0853 36.9656 7.90399 36.6274C7.72676 36.2892 7.44675 36.0305 7.06405 35.8515C6.68539 35.6685 6.18786 35.577 5.57148 35.577H3.22687V46.2184H1.35963ZM7.46891 40.7037L10.5266 46.2184H8.39951L5.40229 40.7037H7.46891ZM14.8835 46.4214C14.2953 46.4214 13.7635 46.3138 13.2882 46.0991C12.8128 45.8802 12.4361 45.5638 12.1581 45.1499C11.8842 44.7365 11.7472 44.2289 11.7472 43.6281C11.7472 43.1109 11.848 42.6852 12.0494 42.3508C12.2508 42.0167 12.5228 41.7522 12.8652 41.5572C13.2076 41.3622 13.5903 41.215 14.0133 41.1155C14.4363 41.0161 14.8673 40.9404 15.3065 40.8887C15.8624 40.8251 16.3136 40.7733 16.66 40.7336C17.0065 40.6898 17.2583 40.6201 17.4154 40.5247C17.5725 40.4292 17.6511 40.274 17.6511 40.0591V40.0174C17.6511 39.4961 17.502 39.0923 17.2039 38.8058C16.9098 38.5193 16.4707 38.3761 15.8866 38.3761C15.2782 38.3761 14.7988 38.5094 14.4484 38.7759C14.1019 39.0386 13.8622 39.331 13.7293 39.6533L12.0312 39.2713C12.2327 38.7143 12.5268 38.2647 12.9135 37.9225C13.3043 37.5763 13.7534 37.3257 14.261 37.1705C14.7686 37.0113 15.3024 36.9317 15.8624 36.9317C16.233 36.9317 16.6258 36.9755 17.0407 37.063C17.4597 37.1466 17.8505 37.3018 18.2131 37.5286C18.5796 37.7554 18.8798 38.0796 19.1134 38.5014C19.3471 38.9192 19.4639 39.4623 19.4639 40.1308V46.2184H17.6994V44.9651H17.6269C17.5101 45.1957 17.3348 45.4226 17.1012 45.6453C16.8675 45.8684 16.5674 46.0533 16.2008 46.2004C15.8342 46.3478 15.3951 46.4214 14.8835 46.4214ZM15.2762 44.989C15.7758 44.989 16.2028 44.8915 16.5573 44.6966C16.9159 44.5016 17.1878 44.247 17.3731 43.9327C17.5624 43.6142 17.6571 43.2739 17.6571 42.9121V41.7303C17.5927 41.7939 17.4678 41.8536 17.2825 41.9093C17.1012 41.961 16.8937 42.0068 16.66 42.0466C16.4264 42.0823 16.1988 42.1163 15.9772 42.1478C15.7556 42.176 15.5703 42.1999 15.4213 42.2197C15.0708 42.2634 14.7505 42.3369 14.4605 42.4407C14.1744 42.5441 13.9448 42.6932 13.7716 42.8882C13.6024 43.0789 13.5178 43.3336 13.5178 43.652C13.5178 44.0936 13.6829 44.4281 14.0133 44.6546C14.3437 44.8777 14.7646 44.989 15.2762 44.989ZM28.1369 49.6562V44.792H28.0281C27.9193 44.9869 27.7622 45.2096 27.5568 45.4604C27.3553 45.7113 27.0774 45.9298 26.7229 46.1172C26.3683 46.3041 25.9091 46.3974 25.3451 46.3974C24.5958 46.3974 23.927 46.2083 23.3389 45.8306C22.7547 45.4487 22.2955 44.9054 21.9611 44.2012C21.6308 43.4928 21.4656 42.6432 21.4656 41.6527C21.4656 40.662 21.6328 39.8144 21.9672 39.1102C22.3055 38.4059 22.7688 37.8668 23.357 37.4928C23.9452 37.1188 24.6119 36.9317 25.3572 36.9317C25.9333 36.9317 26.3965 37.0272 26.747 37.2182C27.1015 37.4052 27.3755 37.6241 27.5689 37.8747C27.7662 38.1254 27.9193 38.3462 28.0281 38.5373H28.1792V37.0511H29.9437V49.6562H28.1369ZM25.7439 44.8756C26.2636 44.8756 26.7027 44.7403 27.0612 44.4697C27.4238 44.1953 27.6978 43.8151 27.8831 43.3298C28.0724 42.8445 28.1671 42.2793 28.1671 41.6348C28.1671 40.9982 28.0744 40.4411 27.8891 39.9636C27.7038 39.4862 27.4319 39.1142 27.0733 38.8476C26.7148 38.581 26.2716 38.4477 25.7439 38.4477C25.2001 38.4477 24.7469 38.587 24.3843 38.8655C24.0217 39.144 23.7478 39.524 23.5625 40.0054C23.3812 40.4869 23.2905 41.03 23.2905 41.6348C23.2905 42.2474 23.3832 42.7987 23.5685 43.2882C23.7538 43.7773 24.0277 44.1655 24.3903 44.4516C24.7569 44.7344 25.2081 44.8756 25.7439 44.8756ZM38.2525 42.4167V37.0511H40.0654V46.2184H38.2888V44.631H38.1921C37.9786 45.1201 37.6362 45.5281 37.1648 45.8546C36.6975 46.1768 36.1154 46.3378 35.4185 46.3378C34.8222 46.3378 34.2945 46.2083 33.8352 45.9499C33.38 45.6873 33.0215 45.2991 32.7596 44.7861C32.5018 44.2726 32.3729 43.6382 32.3729 42.8823V37.0511H34.1797V42.6672C34.1797 43.292 34.3549 43.7894 34.7054 44.1592C35.0559 44.5294 35.5111 44.7142 36.0711 44.7142C36.4095 44.7142 36.7459 44.631 37.0802 44.4638C37.4186 44.2966 37.6986 44.0441 37.9202 43.7058C38.1458 43.3676 38.2566 42.9378 38.2525 42.4167ZM46.4935 46.4033C45.5789 46.4033 44.7915 46.2104 44.1308 45.8243C43.4739 45.4344 42.9664 44.8873 42.6078 44.1831C42.2534 43.4751 42.0761 42.6453 42.0761 41.6945C42.0761 40.7554 42.2534 39.9278 42.6078 39.2117C42.9664 38.4954 43.4659 37.9364 44.1065 37.5346C44.751 37.1327 45.5044 36.9317 46.3663 36.9317C46.8904 36.9317 47.398 37.0173 47.8893 37.1884C48.3807 37.3595 48.8218 37.628 49.2128 37.9941C49.6033 38.3602 49.9117 38.8357 50.1372 39.4205C50.3627 40.0015 50.4758 40.7077 50.4758 41.5393V42.1718H43.0975V40.835H48.7053C48.7053 40.3655 48.6083 39.9497 48.4151 39.5877C48.2216 39.2216 47.9497 38.9331 47.5992 38.7223C47.2529 38.5114 46.8458 38.4059 46.3787 38.4059C45.8711 38.4059 45.4279 38.5293 45.0492 38.7759C44.6745 39.0187 44.3843 39.337 44.1789 39.7309C43.9776 40.1208 43.8768 40.5446 43.8768 41.0021V42.0466C43.8768 42.6592 43.9857 43.1806 44.2031 43.6104C44.4247 44.0399 44.7332 44.3684 45.128 44.5949C45.5227 44.818 45.9839 44.9294 46.5114 44.9294C46.8539 44.9294 47.1661 44.8815 47.4482 44.7861C47.7302 44.6865 47.974 44.5394 48.1794 44.3445C48.3849 44.1495 48.5419 43.9088 48.6508 43.6222L50.361 43.9264C50.224 44.4239 49.9781 44.8596 49.6237 45.2336C49.2732 45.6037 48.832 45.892 48.3003 46.0991C47.7723 46.302 47.1704 46.4033 46.4935 46.4033ZM54.2871 33.9954V46.2184H52.4804V33.9954H54.2871Z" fill="#B33697"/>
<path d="M62.6423 46.2185H59.2049V35.2178H62.7946C63.8751 35.2178 64.7995 35.438 65.5683 35.8784C66.337 36.3153 66.9262 36.9438 67.3359 37.7638C67.7455 38.5803 67.9502 39.5579 67.9502 40.6967C67.9502 41.8426 67.7434 42.829 67.3303 43.6563C66.9168 44.4799 66.3153 45.1139 65.5249 45.558C64.7345 45.9984 63.7734 46.2185 62.6423 46.2185ZM60.5539 45.037H62.5551C63.4761 45.037 64.2393 44.8614 64.8451 44.5105C65.4504 44.1593 65.9018 43.6601 66.1992 43.0118C66.4965 42.3635 66.645 41.5919 66.645 40.6967C66.645 39.8086 66.4982 39.044 66.2047 38.403C65.9107 37.7585 65.4721 37.2643 64.8885 36.9205C64.3048 36.5732 63.5778 36.3995 62.7074 36.3995H60.5539V45.037ZM73.541 46.3904C72.7361 46.3904 72.0418 46.2147 71.4581 45.8639C70.8779 45.5093 70.4303 45.0152 70.1147 44.3816C69.8028 43.7442 69.6471 43.003 69.6471 42.1576C69.6471 41.3126 69.8028 40.5677 70.1147 39.9232C70.4303 39.275 70.8689 38.7701 71.4309 38.4084C71.9967 38.0432 72.6565 37.8605 73.4104 37.8605C73.8456 37.8605 74.2752 37.9321 74.6994 38.0754C75.1235 38.2186 75.5098 38.4514 75.8578 38.7737C76.2062 39.0924 76.4835 39.515 76.6899 40.0413C76.8966 40.5677 77 41.2159 77 41.9858V42.5232H70.5609V41.4272H75.6948C75.6948 40.9616 75.6004 40.5463 75.4119 40.181C75.2269 39.8158 74.9623 39.5275 74.6181 39.3162C74.2769 39.1049 73.8745 38.9993 73.4104 38.9993C72.8994 38.9993 72.457 39.1246 72.0835 39.3753C71.7138 39.6224 71.4292 39.9447 71.2297 40.3421C71.0302 40.7396 70.9306 41.1658 70.9306 41.6205V42.3509C70.9306 42.974 71.0395 43.5026 71.2569 43.9358C71.4781 44.3652 71.7844 44.6929 72.1762 44.9185C72.5676 45.1408 73.0228 45.2517 73.541 45.2517C73.8783 45.2517 74.1829 45.2051 74.4547 45.1118C74.7304 45.0152 74.9678 44.8719 75.1673 44.6824C75.3668 44.4891 75.5208 44.2488 75.6293 43.9626L76.8694 44.3063C76.7388 44.7219 76.5197 45.087 76.2113 45.4021C75.9033 45.7135 75.5225 45.9572 75.0695 46.1324C74.616 46.3047 74.1068 46.3904 73.541 46.3904ZM84.8697 39.8158L83.7164 40.138C83.6441 39.9482 83.5369 39.7638 83.3957 39.5847C83.2578 39.4021 83.0694 39.2517 82.8303 39.1336C82.5908 39.0154 82.2845 38.9563 81.911 38.9563C81.3996 38.9563 80.9738 39.0727 80.633 39.3055C80.2957 39.5346 80.1272 39.8265 80.1272 40.181C80.1272 40.4961 80.2434 40.745 80.4752 40.9276C80.7071 41.1103 81.0699 41.2624 81.563 41.3842L82.8031 41.685C83.5497 41.8641 84.1065 42.1379 84.4724 42.5068C84.8387 42.8723 85.022 43.3429 85.022 43.9194C85.022 44.3921 84.8842 44.8147 84.6085 45.187C84.3367 45.5597 83.9559 45.8534 83.4663 46.0681C82.9771 46.2828 82.4079 46.3904 81.7587 46.3904C80.9066 46.3904 80.2017 46.2076 79.6431 45.8425C79.085 45.4774 78.7314 44.9437 78.5825 44.2416L79.8009 43.9412C79.9171 44.3849 80.1362 44.7181 80.459 44.94C80.7853 45.1622 81.2112 45.2732 81.737 45.2732C82.3351 45.2732 82.8103 45.1479 83.1617 44.8971C83.5173 44.6429 83.6947 44.3387 83.6947 43.9841C83.6947 43.6975 83.5935 43.4576 83.3901 43.2643C83.1872 43.0673 82.8754 42.9206 82.4547 42.8236L81.0627 42.5013C80.2974 42.3223 79.7354 42.045 79.3768 41.6689C79.0211 41.2893 78.8437 40.8148 78.8437 40.2455C78.8437 39.7799 78.976 39.3681 79.2407 39.01C79.5091 38.6519 79.8733 38.3708 80.334 38.1667C80.7981 37.9626 81.3235 37.8605 81.911 37.8605C82.7376 37.8605 83.3867 38.0396 83.8581 38.3977C84.3329 38.7558 84.6702 39.2284 84.8697 39.8158ZM86.9538 49.3126V37.9679H88.1939V39.2786H88.3462C88.4402 39.1353 88.5708 38.9527 88.7376 38.7307C88.9082 38.5051 89.1511 38.3046 89.4663 38.1291C89.7854 37.95 90.2172 37.8605 90.7609 37.8605C91.4641 37.8605 92.0843 38.0342 92.6208 38.3816C93.1572 38.7289 93.5763 39.2213 93.877 39.8587C94.1782 40.4961 94.3284 41.2482 94.3284 42.1147C94.3284 42.9883 94.1782 43.7458 93.877 44.387C93.5763 45.0244 93.1594 45.5185 92.6263 45.8694C92.0933 46.2168 91.4785 46.3904 90.7826 46.3904C90.2461 46.3904 89.8165 46.3026 89.4936 46.1274C89.1711 45.9484 88.9227 45.7458 88.7487 45.5202C88.5747 45.2912 88.4402 45.1013 88.3462 44.9509H88.2373V49.3126H86.9538ZM88.2156 42.0933C88.2156 42.7164 88.3079 43.266 88.493 43.7425C88.6781 44.2152 88.9482 44.5858 89.3034 44.8542C89.6586 45.1194 90.0938 45.2517 90.6086 45.2517C91.145 45.2517 91.593 45.1118 91.952 44.8328C92.3145 44.5496 92.5863 44.1702 92.7676 43.6937C92.9526 43.2139 93.0449 42.6807 93.0449 42.0933C93.0449 41.5131 92.9543 40.9903 92.7731 40.5248C92.5953 40.0557 92.3256 39.685 91.9627 39.4129C91.6036 39.1371 91.1523 38.9993 90.6086 38.9993C90.0866 38.9993 89.6476 39.13 89.2924 39.3914C88.9371 39.6492 88.6687 40.0109 88.4875 40.4764C88.3062 40.9384 88.2156 41.4773 88.2156 42.0933ZM98.7446 46.4118C98.2154 46.4118 97.7347 46.3135 97.3033 46.1164C96.872 45.916 96.5295 45.6278 96.2755 45.2517C96.0216 44.8719 95.8948 44.4139 95.8948 43.8765C95.8948 43.4038 95.9892 43.0206 96.1777 42.7269C96.3661 42.4299 96.618 42.1971 96.9336 42.0286C97.2489 41.8605 97.5973 41.7351 97.9776 41.6528C98.3622 41.5668 98.7485 41.4988 99.136 41.4487C99.644 41.3842 100.055 41.3359 100.371 41.3037C100.69 41.2678 100.922 41.2087 101.067 41.1264C101.215 41.044 101.29 40.9008 101.29 40.6967V40.6537C101.29 40.1237 101.143 39.7119 100.849 39.4182C100.559 39.1246 100.119 38.9778 99.5278 38.9778C98.9152 38.9778 98.4345 39.1103 98.0865 39.3753C97.7385 39.6403 97.4939 39.9232 97.3522 40.224L96.1343 39.7942C96.3517 39.2929 96.6418 38.9026 97.0043 38.6233C97.3705 38.3404 97.7692 38.1434 98.201 38.0324C98.6357 37.9178 99.0637 37.8605 99.4844 37.8605C99.7524 37.8605 100.061 37.8928 100.409 37.9572C100.761 38.0181 101.1 38.1452 101.426 38.3386C101.756 38.532 102.03 38.8238 102.247 39.2141C102.464 39.6045 102.573 40.1273 102.573 40.7826V46.2185H101.29V45.1013H101.225C101.138 45.2803 100.993 45.4719 100.79 45.6761C100.587 45.8803 100.317 46.0538 99.9792 46.1971C99.6418 46.3404 99.2305 46.4118 98.7446 46.4118ZM98.9403 45.2732C99.4478 45.2732 99.8758 45.1748 100.224 44.9778C100.576 44.7807 100.84 44.5265 101.018 44.2152C101.199 43.9034 101.29 43.5757 101.29 43.232V42.0719C101.235 42.1362 101.116 42.1954 100.931 42.2492C100.75 42.2992 100.539 42.3437 100.3 42.3832C100.064 42.419 99.8341 42.4513 99.6095 42.4799C99.3883 42.5051 99.2088 42.5265 99.0709 42.5446C98.7374 42.5874 98.4256 42.6572 98.1354 42.7538C97.8491 42.8471 97.6169 42.9883 97.4395 43.1782C97.2655 43.3643 97.1783 43.6185 97.1783 43.9412C97.1783 44.3816 97.3433 44.7143 97.6734 44.94C98.007 45.1622 98.4294 45.2732 98.9403 45.2732ZM108.31 46.3904C107.526 46.3904 106.852 46.2076 106.286 45.8425C105.721 45.4774 105.286 44.974 104.981 44.3332C104.677 43.6921 104.524 42.9597 104.524 42.1362C104.524 41.2983 104.68 40.5588 104.992 39.9178C105.307 39.2732 105.746 38.7701 106.308 38.4084C106.874 38.0432 107.534 37.8605 108.288 37.8605C108.875 37.8605 109.405 37.9679 109.876 38.1828C110.347 38.3977 110.733 38.6985 111.034 39.0852C111.335 39.472 111.522 39.9232 111.595 40.4388H110.311C110.213 40.0628 109.996 39.7298 109.658 39.4397C109.325 39.1461 108.875 38.9993 108.31 38.9993C107.809 38.9993 107.371 39.1282 106.993 39.386C106.62 39.6403 106.328 40.0002 106.118 40.4657C105.911 40.9276 105.808 41.4702 105.808 42.0933C105.808 42.7307 105.909 43.2858 106.112 43.7584C106.319 44.2311 106.609 44.5979 106.983 44.8597C107.36 45.1211 107.802 45.2517 108.31 45.2517C108.643 45.2517 108.946 45.1942 109.218 45.0799C109.49 44.9652 109.72 44.8005 109.909 44.5858C110.097 44.3706 110.231 44.1131 110.311 43.8122H111.595C111.522 44.2992 111.342 44.7379 111.056 45.1282C110.773 45.5147 110.398 45.8227 109.93 46.0521C109.466 46.2778 108.926 46.3904 108.31 46.3904ZM114.754 41.2553V46.2185H113.471V35.2178H114.754V39.2571H114.863C115.059 38.831 115.352 38.4926 115.744 38.2419C116.139 37.9876 116.665 37.8605 117.321 37.8605C117.89 37.8605 118.389 37.9733 118.817 38.199C119.245 38.421 119.576 38.7629 119.812 39.2249C120.052 39.6832 120.171 40.2669 120.171 40.976V46.2185H118.888V41.0619C118.888 40.4066 118.715 39.8999 118.371 39.5418C118.03 39.1801 117.557 38.9993 116.952 38.9993C116.531 38.9993 116.154 39.087 115.82 39.2625C115.49 39.4379 115.229 39.694 115.037 40.0306C114.849 40.3672 114.754 40.7755 114.754 41.2553ZM124.977 46.4118C124.448 46.4118 123.967 46.3135 123.536 46.1164C123.105 45.916 122.762 45.6278 122.508 45.2517C122.254 44.8719 122.128 44.4139 122.128 43.8765C122.128 43.4038 122.222 43.0206 122.41 42.7269C122.599 42.4299 122.851 42.1971 123.166 42.0286C123.482 41.8605 123.83 41.7351 124.21 41.6528C124.595 41.5668 124.981 41.4988 125.369 41.4487C125.877 41.3842 126.288 41.3359 126.603 41.3037C126.922 41.2678 127.155 41.2087 127.3 41.1264C127.448 41.044 127.523 40.9008 127.523 40.6967V40.6537C127.523 40.1237 127.376 39.7119 127.082 39.4182C126.792 39.1246 126.351 38.9778 125.761 38.9778C125.148 38.9778 124.667 39.1103 124.319 39.3753C123.971 39.6403 123.727 39.9232 123.585 40.224L122.367 39.7942C122.584 39.2929 122.875 38.9026 123.237 38.6233C123.603 38.3404 124.002 38.1434 124.434 38.0324C124.868 37.9178 125.296 37.8605 125.717 37.8605C125.985 37.8605 126.294 37.8928 126.642 37.9572C126.993 38.0181 127.332 38.1452 127.659 38.3386C127.988 38.532 128.262 38.8238 128.48 39.2141C128.697 39.6045 128.806 40.1273 128.806 40.7826V46.2185H127.523V45.1013H127.458C127.37 45.2803 127.225 45.4719 127.022 45.6761C126.819 45.8803 126.549 46.0538 126.212 46.1971C125.875 46.3404 125.463 46.4118 124.977 46.4118ZM125.173 45.2732C125.681 45.2732 126.109 45.1748 126.457 44.9778C126.808 44.7807 127.073 44.5265 127.251 44.2152C127.432 43.9034 127.523 43.5757 127.523 43.232V42.0719C127.468 42.1362 127.349 42.1954 127.164 42.2492C126.982 42.2992 126.772 42.3437 126.533 42.3832C126.297 42.419 126.067 42.4513 125.842 42.4799C125.621 42.5051 125.442 42.5265 125.304 42.5446C124.97 42.5874 124.658 42.6572 124.368 42.7538C124.082 42.8471 123.85 42.9883 123.672 43.1782C123.498 43.3643 123.411 43.6185 123.411 43.9412C123.411 44.3816 123.576 44.7143 123.906 44.94C124.24 45.1622 124.662 45.2732 125.173 45.2732ZM132.432 41.2553V46.2185H131.149V37.9679H132.389V39.2571H132.497C132.693 38.8382 132.99 38.5015 133.39 38.2473C133.788 37.9895 134.303 37.8605 134.934 37.8605C135.5 37.8605 135.994 37.9751 136.419 38.2043C136.843 38.4299 137.173 38.7737 137.408 39.2356C137.644 39.694 137.762 40.2741 137.762 40.976V46.2185H136.478V41.0619C136.478 40.4138 136.308 39.9089 135.968 39.5472C135.626 39.1819 135.159 38.9993 134.564 38.9993C134.154 38.9993 133.788 39.087 133.466 39.2625C133.147 39.4379 132.894 39.694 132.71 40.0306C132.525 40.3672 132.432 40.7755 132.432 41.2553ZM143.74 37.9679V39.0423H139.411V37.9679H143.74ZM140.673 35.9913H141.957V43.8551C141.957 44.2131 142.009 44.4816 142.114 44.661C142.223 44.8362 142.361 44.9542 142.527 45.0152C142.698 45.0727 142.878 45.1013 143.066 45.1013C143.207 45.1013 143.323 45.0942 143.414 45.0799C143.505 45.0618 143.577 45.0475 143.631 45.037L143.893 46.1757C143.806 46.2076 143.684 46.24 143.528 46.2723C143.372 46.308 143.175 46.3261 142.935 46.3261C142.573 46.3261 142.218 46.2488 141.869 46.095C141.525 45.9408 141.238 45.7063 141.01 45.3912C140.785 45.0761 140.673 44.6786 140.673 44.1988V35.9913ZM149.084 46.3904C148.279 46.3904 147.584 46.2147 147.001 45.8639C146.421 45.5093 145.973 45.0152 145.658 44.3816C145.346 43.7442 145.19 43.003 145.19 42.1576C145.19 41.3126 145.346 40.5677 145.658 39.9232C145.973 39.275 146.411 38.7701 146.973 38.4084C147.539 38.0432 148.199 37.8605 148.953 37.8605C149.388 37.8605 149.818 37.9321 150.242 38.0754C150.666 38.2186 151.052 38.4514 151.401 38.7737C151.749 39.0924 152.026 39.515 152.233 40.0413C152.439 40.5677 152.543 41.2159 152.543 41.9858V42.5232H146.103V41.4272H151.237C151.237 40.9616 151.143 40.5463 150.954 40.181C150.77 39.8158 150.505 39.5275 150.161 39.3162C149.82 39.1049 149.417 38.9993 148.953 38.9993C148.442 38.9993 148 39.1246 147.626 39.3753C147.256 39.6224 146.972 39.9447 146.772 40.3421C146.573 40.7396 146.473 41.1658 146.473 41.6205V42.3509C146.473 42.974 146.582 43.5026 146.799 43.9358C147.021 44.3652 147.327 44.6929 147.719 44.9185C148.11 45.1408 148.565 45.2517 149.084 45.2517C149.421 45.2517 149.725 45.2051 149.997 45.1118C150.273 45.0152 150.51 44.8719 150.71 44.6824C150.909 44.4891 151.063 44.2488 151.172 43.9626L152.412 44.3063C152.282 44.7219 152.062 45.087 151.754 45.4021C151.446 45.7135 151.065 45.9572 150.612 46.1324C150.159 46.3047 149.649 46.3904 149.084 46.3904Z" fill="white"/>
<path d="M94.7793 3.94176C84.7136 1.28428 61.3852 -2.43618 48.5959 3.94176C38.8496 7.93836 18.1792 13.0058 6.77264 11.9796C4.45234 11.7709 3.9808 9.97487 2.77183 11.942C1.45447 14.0855 0.0437327 19.2997 0.31777 21.7925C0.927228 27.3366 2.1393 36.0739 1.42573 27.859C1.28973 26.2933 1.24687 24.7032 1.27615 23.136C1.45388 13.6246 9.05941 14.7944 18.6817 14.3719C27.7605 13.9733 32.6094 12.9107 51.7538 6.93143C67.0691 2.14797 86.5557 4.93832 94.3846 6.93143C94.516 6.99786 98.5294 7.8084 113.529 10.519C113.332 10.4526 109.306 9.04412 94.7793 3.94176Z" fill="white" stroke="white"/>
<path d="M104.358 14.2555C93.8851 16.4543 73.9957 17.4703 55.0682 11.3032C50.1572 9.70303 77.7662 24.7351 106.176 16.7636C107.817 16.3029 109.473 15.8908 111.165 15.6683C118.353 14.7232 132.337 13.6009 147.564 22.639C149.198 23.6083 150.46 25.0795 151.282 26.7771L153.575 31.5125V29.3481C153.575 26.0787 152.137 22.9238 149.436 21.0335C142.259 16.0097 131.6 11.0992 113.04 12.6554C110.102 12.9016 107.241 13.6501 104.358 14.2555Z" fill="#B33697" stroke="#B33698"/>
</g>
<defs>
<clipPath id="clip0_247_294">
<rect width="154" height="50" fill="white"/>
</clipPath>
</defs>
</svg>
