<svg width="73" height="75" viewBox="0 0 73 75" fill="none" xmlns="http://www.w3.org/2000/svg">
<g clip-path="url(#clip0_247_156)">
<path d="M62.3093 61.6321C69.2026 54.8138 73 45.7471 73 36.1033C73 26.4596 69.2026 17.3939 62.3093 10.5756C55.415 3.75615 46.2497 0 36.5 0C26.7503 0 17.585 3.75615 10.6907 10.5756C3.79638 17.395 0 26.4606 0 36.1033C0 45.7461 3.79742 54.8138 10.6907 61.6321C11.4215 62.354 12.1775 63.0428 12.9574 63.6953C12.6156 64.9364 12.4159 66.2012 12.6961 67.4112C12.8006 67.8641 12.7787 68.3357 13.3987 68.4236C13.6716 68.4619 14.3104 69.0927 14.5373 69.2396C25.1349 76.1407 39.5666 76.0818 51.4722 73.0195C54.0432 72.3587 56.4469 71.4134 58.8464 70.3151C59.4821 70.0235 59.6452 69.5933 59.7289 69.0441C59.7634 68.8166 59.7738 68.5829 59.7728 68.3492C59.1643 67.4256 58.8182 66.2487 58.8182 65.2208C58.8182 65.0346 58.8308 64.8443 58.8517 64.653C60.0572 63.7264 61.2125 62.7191 62.3103 61.6332L62.3093 61.6321ZM21.2769 64.7895C21.1922 64.8805 21.0907 64.956 20.9799 65.0543C20.9663 64.9808 20.9423 64.9364 20.9559 64.9188C21.5602 64.0511 21.5382 64.0811 20.6589 63.383C19.9825 62.8463 19.3572 62.2423 18.7487 61.629C18.6044 61.4853 18.5082 61.1554 18.571 60.9713C19.6364 57.815 20.7468 54.6752 22.383 51.7505C22.4102 51.7019 22.4447 51.6595 22.4771 51.614C22.5085 51.6337 22.5399 51.6533 22.5712 51.6719C22.2095 52.4176 21.8017 53.1467 21.4933 53.914C20.5868 56.1727 19.7263 58.4489 18.8261 60.7117C18.6536 61.145 18.7602 61.4429 19.0875 61.7211C19.7901 62.3178 20.4916 62.9176 21.1932 63.5164C21.6658 63.9184 21.6933 64.3431 21.2758 64.7905L21.2769 64.7895ZM22.6402 63.6178C22.588 63.6167 22.5357 63.6157 22.4834 63.6136L22.7887 52.7992C22.864 52.7961 22.9403 52.7909 23.0166 52.7878L22.6402 63.6188V63.6178ZM24.4898 33.5892C24.448 33.7092 24.1207 33.8064 23.9378 33.7868C23.117 33.6958 22.3015 33.5603 21.5111 33.4434C20.6129 33.5644 19.7566 33.6968 18.8982 33.7795C18.7383 33.794 18.4539 33.6492 18.4047 33.5148C17.7659 31.7577 18.779 29.8289 20.5481 29.378C22.6936 28.8299 24.6142 30.1744 24.723 32.3679C24.7439 32.7733 24.6278 33.2004 24.4898 33.5882V33.5892ZM26.9427 33.3121C26.5014 33.3307 26.3457 33.1735 26.3906 32.7526C26.4157 32.5261 26.4115 32.2934 26.3927 32.0648C26.2986 30.8817 26.9542 30.6459 27.8115 30.5477C28.0593 30.5198 28.3123 30.5167 28.5622 30.5105C29.9549 30.4805 31.2106 30.919 32.3429 31.7174C32.9702 32.16 33.0643 33.3648 32.4872 33.8633C32.4224 33.9202 32.2781 33.9305 32.1871 33.9036C30.4724 33.4072 28.719 33.2355 26.9416 33.3121H26.9427ZM29.2659 53.126C30.0605 55.9989 30.1933 59.2835 30.3386 62.566L29.2659 53.126ZM34.6368 68.4795C34.6985 68.1878 34.7069 68.0203 34.7707 67.8755C34.9735 67.4143 34.7393 67.1195 34.4152 66.8382C33.6164 66.1443 32.8186 65.4493 32.0303 64.745C31.4333 64.2104 31.4406 64.0749 32.0397 63.5288C32.6649 62.959 33.2755 62.3737 33.9217 61.8276C34.3179 61.4925 34.411 61.1275 34.2061 60.6714C33.3299 58.7137 32.4977 56.7363 31.5535 54.8107C31.0307 53.7434 30.3187 52.7661 29.6924 51.7485C29.7395 51.7123 29.7845 51.6771 29.8294 51.6409C30.5289 52.7289 31.3298 53.7682 31.9059 54.9172C32.8322 56.7663 33.6007 58.6951 34.4612 60.5783C34.7163 61.1378 34.5846 61.5525 34.1538 61.9393C33.5819 62.4512 33.0403 62.9962 32.4548 63.4916C31.7898 64.0542 31.7741 64.1949 32.4151 64.7678C33.1041 65.3831 33.7899 66.0005 34.4664 66.6293C35.1648 67.2778 35.1889 67.496 34.6379 68.4795H34.6368ZM51.8737 50.8735C50.7435 49.3502 50.8156 47.9644 51.9103 46.3324C52.0964 46.0542 52.3316 45.806 52.6024 45.472C52.7363 46.5486 53.3626 47.0584 54.2502 47.3387C55.8635 47.8454 57.5165 48.0823 59.203 48.0068C59.7916 47.9789 59.9108 48.2333 59.8585 48.7162C59.5898 51.1797 57.6765 52.5562 55.6324 52.6223C54.0641 52.674 52.7886 52.1063 51.8737 50.8735ZM56.6644 60.63C56.8003 60.5287 56.884 60.4594 56.9749 60.3984C58.2714 59.5369 59.4121 58.5099 60.2579 57.2048C60.5664 56.7291 60.9083 56.4354 61.4718 56.2616C63.015 55.7869 63.9884 53.5273 62.5487 52.3617C62.4494 52.2821 62.3616 52.0939 62.3835 51.977C63.4249 46.6489 62.5508 41.0498 58.0916 37.3878C54.7009 34.6017 49.9844 33.9853 45.8451 35.306C41.3911 36.7269 38.4677 40.0022 37.0426 44.321C36.4843 46.017 35.4524 48.4018 36.4676 50.101C36.8576 50.7536 37.2591 51.401 37.6511 52.0432C36.271 53.3432 36.0609 54.2139 36.8168 55.4126C37.3239 56.2172 38.5137 56.7477 39.255 56.4954C39.1149 56.1468 38.9654 55.8014 38.8378 55.4477C38.7166 55.1116 38.6193 54.7672 38.5106 54.4249C40.9216 60.3839 45.7918 62.1379 51.7221 62.1451C48.7737 62.4616 45.9664 61.8504 43.2898 60.8048C40.8892 63.7729 40.541 67.3088 40.2629 70.8591C40.2566 70.9263 40.2514 70.9915 40.2462 71.0587C40.2274 70.9946 40.2096 70.9305 40.1929 70.8664C39.9911 70.1342 39.8457 69.4154 39.6617 68.708C38.8399 65.5476 38.0244 62.384 37.166 59.2328C36.6181 57.2193 36.0086 55.2223 35.4011 53.2253C35.3332 53.0029 35.1303 52.7092 34.9317 52.6544C33.1239 52.159 31.3036 51.7174 29.4896 51.2417C29.1624 51.1569 28.7807 51.0556 28.8393 50.5819C28.8916 50.1568 28.6323 49.6666 29.384 49.466C30.4892 49.1723 31.3601 48.4784 32.0219 47.5207C32.2174 47.2373 32.5792 47.0171 32.9127 46.8888C33.5976 46.6251 34.3127 46.4421 35.0833 46.2063C34.6483 45.6644 34.2625 45.2166 33.9185 44.7408C33.7732 44.5402 33.7136 44.2796 33.6143 44.0459C33.8527 43.9538 34.0848 43.8235 34.3326 43.7749C34.9798 43.6467 35.6343 43.5557 36.3223 43.444L35.2945 40.6331C36.7394 40.1677 38.1195 39.7354 39.3962 38.8243C38.6256 38.4096 37.9146 38.0766 37.258 37.6618C36.592 37.2409 35.9814 36.7373 35.215 36.1726C37.7128 35.338 40.0193 34.5965 41.9943 32.9822L36.959 30.889L41.7058 26.4978L35.6123 25.5567L39.2017 19.484L39.1003 19.3982L33.3121 21.4769C32.5938 19.0062 32.4098 16.5749 32.6628 14.0566C32.4788 14.1052 32.344 14.1187 32.23 14.1755C29.9486 15.3049 27.891 16.7176 26.3362 18.8842C24.8484 16.9389 23.53 14.9677 21.6616 13.3751C21.4013 15.7641 21.1713 18.0692 20.0013 20.2141C18.2354 19.1241 16.3523 18.4591 14.1839 18.214C15.3256 20.0807 15.978 21.9805 16.1756 24.0489L8.57347 24.6301C8.63725 24.749 8.65503 24.8059 8.69267 24.8452C8.78363 24.9435 8.88191 25.0355 8.98228 25.1234C10.3697 26.352 11.685 27.6354 12.5957 29.2757C13.1676 30.3057 12.7232 30.4484 11.8429 31.0617C10.5872 31.9335 8.83486 32.7898 7.84473 33.9202C8.03606 34.0101 8.29222 34.1012 8.51283 34.1012C9.32522 34.2315 14.4756 36.4705 13.3798 37.5026C12.3855 38.4385 11.4184 39.4013 10.4492 40.3621C10.3404 40.4676 10.2829 40.6237 10.193 40.7685C11.5104 41.1894 12.74 41.6238 13.9936 41.9651C14.5383 42.1119 14.5906 42.3043 14.4453 42.7966C14.1243 43.8835 13.8765 44.9911 13.5785 46.169C14.7223 46.0832 15.7951 46.0336 16.8573 45.9053C17.2484 45.8577 17.3174 45.9488 17.3393 46.2973C17.3906 47.0957 17.4847 47.8899 17.5673 48.7535L19.5622 47.9271C16.757 43.9838 16.2154 39.5379 16.207 34.9906C16.2697 35.6948 16.3523 36.4001 16.39 37.1055C16.5395 39.904 17.1877 42.5846 18.2469 45.1814C19.1021 47.2777 20.4739 48.8114 22.7542 49.3978C23.1463 49.4991 23.1473 49.7628 23.1358 50.0586C23.1233 50.372 23.2017 50.6791 22.7396 50.8249C20.6893 51.4765 18.6504 52.157 16.62 52.8643C16.3858 52.946 16.1296 53.2242 16.0575 53.4642C15.3476 55.8252 14.6617 58.1956 13.9591 60.5587C13.7751 61.175 13.5482 61.8183 13.3307 62.4771C5.88015 56.061 1.16369 46.6158 1.16369 36.1033C1.16369 16.8303 17.0152 1.15105 36.5 1.15105C55.9848 1.15105 71.8363 16.8303 71.8363 36.1033C71.8363 47.1732 66.6065 57.058 58.4627 63.4657C58.0717 62.4357 57.5322 61.4677 56.6644 60.63ZM49.1208 49.8063C48.6775 51.4351 47.519 52.4641 45.7855 52.7309C43.4905 53.0857 41.4768 51.9418 40.7846 49.9231C40.748 49.8156 40.7094 49.708 40.6916 49.5974C40.448 48.0874 40.4668 48.1154 41.9692 48.0109C43.1518 47.9282 44.3385 47.7782 45.4959 47.5362C46.578 47.3087 47.5776 46.8681 47.61 45.412C49.1542 46.6344 49.5714 48.1443 49.1197 49.8063H49.1208Z" fill="white"/>
</g>
<defs>
<clipPath id="clip0_247_156">
<rect width="73" height="75" fill="white"/>
</clipPath>
</defs>
</svg>
